<svg xmlns="http://www.w3.org/2000/svg" viewBox="0 0 200 195"><defs><style>.cls-1{fill:#004f98;}.cls-2{fill:none;}</style></defs><g id="Layer_2" data-name="Layer 2"><g id="Layer_1-2" data-name="Layer 1"><path class="cls-1" d="M100.49,108.83H100c-26,0-50.41-1.18-68.78-3.28A152.79,152.79,0,0,1,10.34,102C5.07,100.59,2.5,99.1,2.5,97.45s2.57-3.14,7.84-4.56a150.68,150.68,0,0,1,20.88-3.51c18.26-2.07,42.5-3.21,68.29-3.21h.5c26,0,50.41,1.18,68.78,3.28A152.79,152.79,0,0,1,189.66,93c5.27,1.42,7.84,2.91,7.84,4.56h0c0,1.65-2.57,3.14-7.84,4.56a150.68,150.68,0,0,1-20.88,3.51C150.52,107.69,126.28,108.83,100.49,108.83Zm-1-22.14c-25.78,0-50,1.14-68.23,3.21a150.93,150.93,0,0,0-20.8,3.49,27.15,27.15,0,0,0-5.61,2C3.65,96.12,3,96.8,3,97.45s.62,1.32,1.84,2a26.38,26.38,0,0,0,5.6,2.06A152,152,0,0,0,31.27,105c18.35,2.1,42.76,3.26,68.72,3.28h.5c25.78,0,50-1.14,68.23-3.21a150.93,150.93,0,0,0,20.8-3.49,27.15,27.15,0,0,0,5.61-2c1.22-.68,1.84-1.36,1.84-2s-.62-1.32-1.84-2a26.38,26.38,0,0,0-5.6-2.06A152,152,0,0,0,168.73,90C150.38,87.87,126,86.71,100,86.69Z"/><path class="cls-1" d="M153.44,112.92c-16,0-34.89-.9-54.57-2.63-25.88-2.28-50.1-5.73-68.2-9.71a134.27,134.27,0,0,1-20.45-5.82,24.63,24.63,0,0,1-5.49-2.88c-1.31-1-1.93-2-1.85-2.93s.87-1.81,2.33-2.56a24.31,24.31,0,0,1,5.92-1.88,134.38,134.38,0,0,1,21.15-2.16c4.44-.18,9.22-.27,14.28-.27,16,0,34.89.9,54.57,2.63,25.88,2.28,50.1,5.73,68.2,9.71a134.27,134.27,0,0,1,20.45,5.82,24.63,24.63,0,0,1,5.49,2.88c1.31,1,1.93,2,1.85,2.93s-.87,1.81-2.33,2.56a24.31,24.31,0,0,1-5.92,1.88,134.38,134.38,0,0,1-21.15,2.16C163.28,112.83,158.5,112.92,153.44,112.92ZM46.56,82.6c-5.05,0-9.83.09-14.26.27A134.44,134.44,0,0,0,11.24,85c-6.31,1.34-7.74,2.9-7.84,4s1.05,2.87,7,5.29a135,135,0,0,0,20.37,5.79c18.07,4,42.27,7.42,68.13,9.7s50.29,3.11,68.78,2.36A134.44,134.44,0,0,0,188.76,110c6.31-1.34,7.74-2.9,7.84-4l.26,0-.26,0c.09-1.08-1-2.87-7-5.29a135,135,0,0,0-20.37-5.79c-18.07-4-42.27-7.42-68.13-9.7C81.42,83.5,62.58,82.6,46.56,82.6Z"/><path class="cls-1" d="M172.14,119.78q-2.94,0-6.2-.09c-18.57-.54-42.89-3.33-68.47-7.86s-49.39-10.25-67-16.11c-8.58-2.85-15.23-5.58-19.77-8.12-4.79-2.68-7-5.06-6.68-7.08S7.28,77,12.7,76.16c5.14-.83,12.33-1.11,21.36-.85,18.57.54,42.89,3.33,68.48,7.86s49.38,10.25,67,16.11c8.58,2.85,15.23,5.58,19.77,8.12,4.79,2.68,7,5.06,6.68,7.08s-3.28,3.49-8.7,4.36A98.82,98.82,0,0,1,172.14,119.78Zm-144.28-44a99,99,0,0,0-15.07.93c-5.11.82-8,2.18-8.28,3.94s1.91,4,6.43,6.53,11.13,5.24,19.68,8.09c17.6,5.85,41.37,11.56,66.94,16.08s49.85,7.32,68.39,7.86c9,.26,16.16,0,21.26-.84s8-2.18,8.28-3.94l.26,0-.26,0c.31-1.75-1.91-4-6.43-6.53s-11.13-5.24-19.68-8.09c-17.6-5.85-41.37-11.56-66.94-16.08s-49.85-7.32-68.39-7.86C31.88,75.77,29.81,75.74,27.86,75.74Z"/><path class="cls-1" d="M177.57,127.47c-4.06,0-8.8-.27-14.17-.79-18.55-1.8-42.58-6.5-67.68-13.24S47.46,98.73,30.51,91c-8.25-3.77-14.59-7.27-18.83-10.42-4.47-3.32-6.44-6.14-5.84-8.37s3.71-3.68,9.24-4.31c5.25-.6,12.49-.46,21.52.42,18.55,1.8,42.58,6.5,67.68,13.24S152.54,96.27,169.49,104c8.25,3.77,14.59,7.27,18.83,10.42,4.47,3.32,6.44,6.14,5.84,8.37l-.25-.07.25.07c-.6,2.23-3.71,3.68-9.24,4.31A66.18,66.18,0,0,1,177.57,127.47ZM22.43,68.06a65.37,65.37,0,0,0-7.29.36A21.78,21.78,0,0,0,9,69.87a4.16,4.16,0,0,0-2.61,2.48,4.16,4.16,0,0,0,1,3.45A21.79,21.79,0,0,0,12,80.16c4.21,3.13,10.52,6.61,18.74,10.36,16.93,7.72,40.06,15.68,65.13,22.41s49.07,11.43,67.59,13.23c9,.88,16.19,1,21.41.42a21.78,21.78,0,0,0,6.18-1.45,3.45,3.45,0,0,0,1.6-5.93,21.79,21.79,0,0,0-4.63-4.36c-4.21-3.13-10.52-6.61-18.74-10.36-16.93-7.72-40.06-15.68-65.13-22.41S55.07,70.64,36.55,68.84C31.2,68.32,26.48,68.06,22.43,68.06Z"/><path class="cls-1" d="M178.14,135.32a116.12,116.12,0,0,1-18.06-1.75,294.43,294.43,0,0,1-30.42-6.88c-11.59-3.2-23.73-7.11-36.07-11.61s-24.14-9.32-35.08-14.33A295.62,295.62,0,0,1,30.8,86.43C23,81.77,17.05,77.5,13.18,73.75c-4.06-4-5.67-7.2-4.78-9.65s4.21-3.89,9.87-4.3c5.37-.39,12.66.16,21.65,1.63a294.43,294.43,0,0,1,30.42,6.88c11.59,3.2,23.73,7.11,36.07,11.61s24.14,9.32,35.08,14.33a295.62,295.62,0,0,1,27.71,14.32c7.83,4.66,13.75,8.93,17.62,12.68,4.06,4,5.67,7.2,4.78,9.65s-4.21,3.89-9.87,4.3C180.62,135.28,179.42,135.32,178.14,135.32ZM21.87,60.2c-1.27,0-2.46,0-3.56.12a20.93,20.93,0,0,0-6.43,1.3,5,5,0,0,0-3,2.66,5,5,0,0,0,.57,4,20.93,20.93,0,0,0,4.09,5.13c3.83,3.73,9.73,8,17.52,12.61,16,9.56,38.31,19.72,62.7,28.61s48,15.45,66.4,18.46c9,1.47,16.19,2,21.52,1.63a20.93,20.93,0,0,0,6.43-1.3,4.22,4.22,0,0,0,2.42-6.62,20.93,20.93,0,0,0-4.09-5.13c-3.83-3.73-9.73-8-17.52-12.61-16.05-9.56-38.31-19.72-62.7-28.61S58.26,65,39.83,62A115,115,0,0,0,21.87,60.2Z"/><path class="cls-1" d="M176.29,143.09A95,95,0,0,1,156,140.28a261.73,261.73,0,0,1-29.93-9c-11.33-4.09-23.11-9-35-14.53S67.81,105.29,57.4,99.22A262.12,262.12,0,0,1,31.27,82.05C24,76.51,18.56,71.5,15.16,67.15c-3.56-4.57-4.74-8.24-3.5-10.9s4.81-4.12,10.61-4.32c5.51-.19,12.84.75,21.77,2.79a261.73,261.73,0,0,1,29.93,9c11.33,4.09,23.11,9,35,14.53s23.21,11.45,33.62,17.52A262.12,262.12,0,0,1,168.73,113c7.29,5.54,12.71,10.55,16.11,14.9,3.56,4.57,4.74,8.24,3.5,10.9s-4.81,4.12-10.61,4.32ZM23.71,52.43c-.49,0-1,0-1.42,0a20.56,20.56,0,0,0-6.72,1.15,5.91,5.91,0,0,0-3.43,2.86,5.92,5.92,0,0,0,0,4.47,21,21,0,0,0,3.42,5.89c3.37,4.31,8.76,9.3,16,14.81,15,11.34,36.13,23.64,59.65,34.62s46.54,19.33,64.84,23.51c8.88,2,16.16,3,21.63,2.77a20.56,20.56,0,0,0,6.72-1.15,5.91,5.91,0,0,0,3.43-2.86l.24.11-.24-.11a5.92,5.92,0,0,0,0-4.47,21,21,0,0,0-3.42-5.89c-3.37-4.31-8.76-9.3-16-14.81C153.46,102,132.28,89.72,108.76,78.74S62.22,59.41,43.92,55.23A94.59,94.59,0,0,0,23.71,52.43Z"/><path class="cls-1" d="M172.87,150.63c-5.6,0-13-1.29-21.85-3.88a232.81,232.81,0,0,1-29.35-11.06,370.46,370.46,0,0,1-33.73-17.33A370.57,370.57,0,0,1,56.09,97.78,233.33,233.33,0,0,1,31.86,77.87C18.12,64.69,12.34,54.33,15.59,48.71S30.7,42.92,49,48.25A232.81,232.81,0,0,1,78.33,59.31a370.46,370.46,0,0,1,33.73,17.33,370.57,370.57,0,0,1,31.85,20.58,233.33,233.33,0,0,1,24.23,19.91c13.74,13.18,19.52,23.54,16.27,29.16l-.23-.13.23.13C182.73,149.19,178.79,150.63,172.87,150.63ZM27.11,44.89h0a21,21,0,0,0-7.06,1,7.2,7.2,0,0,0-4,3.06,7.28,7.28,0,0,0-.67,5A21.2,21.2,0,0,0,18,60.56c2.81,4.89,7.59,10.58,14.2,16.93,13.64,13.07,33.52,27.43,56,40.41s44.83,23.06,63,28.35c8.79,2.56,16.1,3.86,21.73,3.86h0a21,21,0,0,0,7.06-1,7.2,7.2,0,0,0,4-3.06,7.28,7.28,0,0,0,.67-5,21.2,21.2,0,0,0-2.64-6.62c-2.81-4.89-7.59-10.58-14.2-16.93-13.64-13.07-33.52-27.43-56-40.41S67,54,48.84,48.75C40.05,46.19,32.74,44.89,27.11,44.89Z"/><path class="cls-1" d="M168.3,157.84l-1,0c-5.89-.17-13.32-1.83-22.08-4.93a207.4,207.4,0,0,1-28.68-13,325.35,325.35,0,0,1-32.23-20A325.29,325.29,0,0,1,54.51,96.4a206.39,206.39,0,0,1-22-22.52c-5.9-7.19-10-13.61-12.17-19.08-2.27-5.73-2.32-10.2-.17-13.27S26.54,37,32.7,37.18C38.59,37.35,46,39,54.78,42.11a207.4,207.4,0,0,1,28.68,13,325.35,325.35,0,0,1,32.23,20,325.29,325.29,0,0,1,29.8,23.49,206.39,206.39,0,0,1,22,22.52c5.9,7.19,10,13.61,12.17,19.08,2.27,5.73,2.32,10.2.17,13.27l-.21-.15.21.15C177.8,156.37,173.92,157.84,168.3,157.84ZM31.7,37.69c-5.44,0-9.17,1.39-11.1,4.14-2.05,2.92-2,7.22.23,12.78S27,66.4,32.91,73.55c12.09,14.71,30.45,31,51.7,45.91s42.83,26.59,60.78,32.94c8.72,3.08,16.09,4.73,21.93,4.9s10-1.22,12.08-4.13,2-7.22-.23-12.78S173,128.6,167.09,121.45c-12.09-14.71-30.45-31-51.7-45.91S72.56,49,54.61,42.6c-8.72-3.08-16.09-4.73-21.93-4.9Z"/><path class="cls-1" d="M162.71,164.61c-.6,0-1.2,0-1.83-.05-6.14-.35-13.65-2.34-22.33-5.93a186.3,186.3,0,0,1-28-14.85A287.35,287.35,0,0,1,80,121.26,286,286,0,0,1,52.59,95a184.64,184.64,0,0,1-19.45-25c-5-7.94-8.3-15-9.7-21a23.7,23.7,0,0,1-.63-8.16A11,11,0,0,1,31,31.23a23.4,23.4,0,0,1,8.15-.79c6.14.35,13.65,2.34,22.33,5.93a186.3,186.3,0,0,1,28,14.85A287.35,287.35,0,0,1,120,73.74,286,286,0,0,1,147.41,100a184.64,184.64,0,0,1,19.45,25c5,7.94,8.3,15,9.7,21a23.7,23.7,0,0,1,.63,8.16,11,11,0,0,1-8.16,9.71A21.69,21.69,0,0,1,162.71,164.61ZM37.26,30.91c-5.29,0-9.16,1.41-11.51,4.22C23.13,38.24,22.53,42.9,24,49s4.63,12.93,9.63,20.82C43.89,86,60.51,104.17,80.37,120.86s40.6,29.93,58.38,37.28c8.63,3.57,16.08,5.56,22.16,5.9,6.24.35,10.72-1,13.34-4.17s3.22-7.77,1.8-13.85-4.63-12.93-9.63-20.82C156.11,109,139.49,90.83,119.63,74.14S79,44.21,61.25,36.86C52.62,33.29,45.17,31.3,39.09,31,38.46,30.93,37.85,30.91,37.26,30.91Z"/><path class="cls-1" d="M156.31,170.88c-.85,0-1.74,0-2.64-.11-6.44-.53-14.07-2.85-22.69-6.91a166.32,166.32,0,0,1-27.18-16.6A253.35,253.35,0,0,1,75.07,122.4,252.91,252.91,0,0,1,50.25,93.65,166.19,166.19,0,0,1,33.68,66.44c-4.05-8.61-6.37-16.25-6.89-22.69A25.57,25.57,0,0,1,27.44,35,13.82,13.82,0,0,1,37.6,24.87a25.59,25.59,0,0,1,8.73-.64c6.44.53,14.07,2.85,22.69,6.91A166.32,166.32,0,0,1,96.2,47.74,253.35,253.35,0,0,1,124.93,72.6a252.91,252.91,0,0,1,24.82,28.75,166.19,166.19,0,0,1,16.57,27.21c4.05,8.61,6.37,16.25,6.89,22.69a25.57,25.57,0,0,1-.65,8.73,13.82,13.82,0,0,1-10.16,10.15A23,23,0,0,1,156.31,170.88ZM43.65,24.64c-5.26,0-9.35,1.43-12.18,4.25-3.28,3.28-4.68,8.27-4.16,14.82.52,6.38,2.82,13.95,6.84,22.51,8.3,17.63,23,37.45,41.29,55.81s38.14,33,55.77,41.35c8.55,4,16.12,6.35,22.5,6.87,6.55.53,11.54-.86,14.82-4.14l.19.18-.19-.18c3.28-3.28,4.68-8.27,4.16-14.82-.52-6.38-2.82-13.95-6.84-22.51-8.3-17.63-23-37.45-41.29-55.81s-38.14-33-55.77-41.35c-8.55-4-16.12-6.35-22.5-6.87C45.38,24.68,44.5,24.64,43.65,24.64Z"/><path class="cls-1" d="M149.22,176.55a33.57,33.57,0,0,1-3.55-.19,50.59,50.59,0,0,1-11-2.55,85.49,85.49,0,0,1-12.17-5.34,149.43,149.43,0,0,1-26.43-18.24,223.67,223.67,0,0,1-26.74-27,222.78,222.78,0,0,1-21.94-31A150,150,0,0,1,34.05,62.93,86.91,86.91,0,0,1,30.92,50a51,51,0,0,1-.59-11.27,28.52,28.52,0,0,1,2.1-9.22A17.51,17.51,0,0,1,44.89,19.09a28.21,28.21,0,0,1,9.44-.45,50.59,50.59,0,0,1,11,2.55,85.49,85.49,0,0,1,12.17,5.34,149.43,149.43,0,0,1,26.43,18.24,223.67,223.67,0,0,1,26.74,27,222.78,222.78,0,0,1,21.94,31.05A150,150,0,0,1,166,132.07,86.91,86.91,0,0,1,169.08,145a51,51,0,0,1,.59,11.27,28.52,28.52,0,0,1-2.1,9.22,17.51,17.51,0,0,1-12.46,10.44A25.5,25.5,0,0,1,149.22,176.55ZM50.77,19c-5.21,0-9.65,1.35-13.06,4.21-16.68,14-2.31,58.7,32,99.68C97.07,155.46,128.94,176,149.23,176c5.21,0,9.65-1.35,13.06-4.21l.17.2-.17-.2c16.68-14,2.31-58.7-32-99.68C102.93,39.54,71.06,19,50.77,19Z"/><path class="cls-1" d="M141.57,181.56a35.74,35.74,0,0,1-4.66-.31,51.73,51.73,0,0,1-11.48-3,82.82,82.82,0,0,1-12.32-5.92,136,136,0,0,1-25.7-19.82,197.41,197.41,0,0,1-24.63-29A197.86,197.86,0,0,1,44,90.44a136.37,136.37,0,0,1-9.8-30.94,81.77,81.77,0,0,1-1.33-13.6A52.32,52.32,0,0,1,34,34.1a32.19,32.19,0,0,1,3.73-9.58A22.23,22.23,0,0,1,52.81,14a31.88,31.88,0,0,1,10.28-.22,51.73,51.73,0,0,1,11.48,3,82.82,82.82,0,0,1,12.32,5.92,136,136,0,0,1,25.7,19.82,197.41,197.41,0,0,1,24.63,29A197.86,197.86,0,0,1,156,104.56a136.37,136.37,0,0,1,9.8,30.94,81.77,81.77,0,0,1,1.33,13.6A52.32,52.32,0,0,1,166,160.9a32.19,32.19,0,0,1-3.73,9.58A22.23,22.23,0,0,1,147.19,181,28.36,28.36,0,0,1,141.57,181.56ZM58.4,14a23.86,23.86,0,0,0-14,4.07c-4.94,3.46-8.27,8.9-9.92,16.18-1.59,7.06-1.53,15.54.19,25.2,3.53,19.9,13.66,42.57,28.52,63.82s32.68,38.54,50.16,48.69c8.49,4.92,16.43,7.89,23.61,8.81,7.4,1,13.66-.31,18.6-3.76s8.27-8.9,9.92-16.18c1.59-7.06,1.53-15.54-.19-25.2-3.53-19.9-13.66-42.57-28.52-63.82S104.11,33.23,86.63,23.08C78.14,18.16,70.2,15.19,63,14.27A35.26,35.26,0,0,0,58.4,14Z"/><path class="cls-1" d="M133.52,185.83a40.38,40.38,0,0,1-6.11-.48,54.81,54.81,0,0,1-12.09-3.43,80.12,80.12,0,0,1-12.55-6.51,110.76,110.76,0,0,1-12.64-9.36,140,140,0,0,1-12.38-12,174.32,174.32,0,0,1-22.43-30.82A173.81,173.81,0,0,1,39.89,88.41a140.39,140.39,0,0,1-4.16-16.7A110.2,110.2,0,0,1,34,56.07,79.63,79.63,0,0,1,34.61,42,54.94,54.94,0,0,1,37.7,29.77,37,37,0,0,1,43.25,20,28.37,28.37,0,0,1,61.34,9.55a37,37,0,0,1,11.25.1,54.81,54.81,0,0,1,12.09,3.43,80.12,80.12,0,0,1,12.55,6.51A110.76,110.76,0,0,1,109.87,29a140,140,0,0,1,12.38,12,174.32,174.32,0,0,1,22.43,30.82,173.81,173.81,0,0,1,15.43,34.85,140.39,140.39,0,0,1,4.16,16.7A110.2,110.2,0,0,1,166,138.93a79.63,79.63,0,0,1-.65,14.12,54.94,54.94,0,0,1-3.09,12.18,37,37,0,0,1-5.55,9.79A28.85,28.85,0,0,1,148.7,182l-.13-.23.13.23a28.69,28.69,0,0,1-10,3.49A34.54,34.54,0,0,1,133.52,185.83ZM66.53,9.67a29.59,29.59,0,0,0-15,3.82C39.77,20.29,33.71,35.4,34.48,56.05s8.34,44.49,21.29,67,29.75,40.92,47.28,52c10.91,6.87,21.29,10.36,30.42,10.36a29.59,29.59,0,0,0,15-3.82c11.79-6.8,17.85-21.91,17.08-42.56S157.18,94.46,144.23,72,114.48,31.08,97,20C86,13.16,75.66,9.67,66.53,9.67Z"/><path class="cls-1" d="M125.3,189.3a46.22,46.22,0,0,1-8.1-.74,58.77,58.77,0,0,1-12.83-4,79.44,79.44,0,0,1-12.87-7.14,104.24,104.24,0,0,1-12.56-10.06,128.21,128.21,0,0,1-11.87-12.73A154.68,154.68,0,0,1,46.9,122.22a154.45,154.45,0,0,1-11.84-36.3A127.17,127.17,0,0,1,33,68.64a102.86,102.86,0,0,1,.38-16.09,79.83,79.83,0,0,1,2.82-14.46,59,59,0,0,1,5.22-12.36A43.07,43.07,0,0,1,49,15.92a36.27,36.27,0,0,1,21.46-10,43.72,43.72,0,0,1,12.38.52,58.77,58.77,0,0,1,12.83,4,79.44,79.44,0,0,1,12.87,7.14,104.24,104.24,0,0,1,12.56,10.06,128.21,128.21,0,0,1,11.87,12.73A154.68,154.68,0,0,1,153.1,72.78a154.45,154.45,0,0,1,11.84,36.3,127.17,127.17,0,0,1,2.1,17.28,102.86,102.86,0,0,1-.38,16.09,79.83,79.83,0,0,1-2.82,14.46,59,59,0,0,1-5.22,12.36,43.07,43.07,0,0,1-7.58,9.81,36.27,36.27,0,0,1-21.46,10A40.21,40.21,0,0,1,125.3,189.3ZM74.77,6.2a36.78,36.78,0,0,0-15.7,3.39c-14,6.53-23,21.81-25.21,43S36.43,98.5,47.38,122s26.71,43,44.41,55,35.11,14.92,49.14,8.39l.11.24-.11-.24c14-6.53,23-21.81,25.21-43S163.57,96.5,152.62,73s-26.71-43-44.41-55C96.68,10.18,85.23,6.2,74.77,6.2Z"/><path class="cls-1" d="M117.23,191.93a53.39,53.39,0,0,1-10.93-1.16,64.22,64.22,0,0,1-13.7-4.6,80.42,80.42,0,0,1-13.31-7.84,99.48,99.48,0,0,1-12.55-10.79,115.49,115.49,0,0,1-11.41-13.46,136.76,136.76,0,0,1-17.85-33.86,136.63,136.63,0,0,1-8-37.42,117.93,117.93,0,0,1,.1-17.65,99.69,99.69,0,0,1,2.7-16.34,80.87,80.87,0,0,1,5.18-14.55A64.49,64.49,0,0,1,45,21.94a52.1,52.1,0,0,1,9.8-9.62A46.47,46.47,0,0,1,80,3.15,52.08,52.08,0,0,1,93.7,4.23a64.22,64.22,0,0,1,13.7,4.6,80.42,80.42,0,0,1,13.31,7.84,99.48,99.48,0,0,1,12.55,10.79,115.49,115.49,0,0,1,11.41,13.46,136.76,136.76,0,0,1,17.85,33.86,136.63,136.63,0,0,1,8,37.42,117.93,117.93,0,0,1-.1,17.65,99.69,99.69,0,0,1-2.7,16.34,80.87,80.87,0,0,1-5.18,14.55A64.49,64.49,0,0,1,155,173.06a52.1,52.1,0,0,1-9.8,9.62A46.47,46.47,0,0,1,120,191.85C119.08,191.91,118.16,191.93,117.23,191.93ZM82.85,3.58a46.6,46.6,0,0,0-16,2.78c-16.55,6-28.67,21.13-34.14,42.58S29.12,95.68,38,120,61.6,165,79.59,177.91c12.41,8.93,25.31,13.51,37.56,13.51a46.6,46.6,0,0,0,16-2.78l.08.25-.08-.25c16.55-6,28.67-21.13,34.14-42.58S170.88,99.32,162,75,138.4,30.05,120.41,17.09C108,8.16,95.1,3.58,82.85,3.58Z"/><path class="cls-1" d="M109.77,193.71a63.87,63.87,0,0,1-15-1.83A72.77,72.77,0,0,1,80,186.5a84.33,84.33,0,0,1-13.88-8.62,97,97,0,0,1-12.63-11.56,109,109,0,0,1-11-14.19A124.14,124.14,0,0,1,22.94,78.84a109.18,109.18,0,0,1,2.44-17.79,97.4,97.4,0,0,1,5.18-16.32,84.12,84.12,0,0,1,7.73-14.39,72.41,72.41,0,0,1,10.07-12A63.41,63.41,0,0,1,60.61,9.17,59.44,59.44,0,0,1,90.06,1.29a63.71,63.71,0,0,1,15.18,1.83A72.77,72.77,0,0,1,120,8.5a84.33,84.33,0,0,1,13.88,8.62,97,97,0,0,1,12.63,11.56,109,109,0,0,1,11,14.19,124.14,124.14,0,0,1,19.59,73.29A109.18,109.18,0,0,1,174.62,134a97.4,97.4,0,0,1-5.18,16.32,84.12,84.12,0,0,1-7.73,14.39,72.41,72.41,0,0,1-10.07,12,63.41,63.41,0,0,1-12.25,9.16,59.44,59.44,0,0,1-29.45,7.88ZM90.31,1.8A59.33,59.33,0,0,0,75,3.82C55.6,9,40,23.59,31.05,44.93s-10.23,46.92-3.54,71.95,20.53,46.55,39,60.59C80.1,187.83,95,193.2,109.69,193.2a59.33,59.33,0,0,0,15.36-2C144.4,186,160,171.41,169,150.07s10.23-46.92,3.54-71.95-20.53-46.55-39-60.59C119.9,7.17,105,1.8,90.31,1.8Z"/><path class="cls-1" d="M103.63,194.68c-1.38,0-2.76,0-4.14-.11a78.69,78.69,0,0,1-16.86-2.81,83.12,83.12,0,0,1-15.91-6.34,89.6,89.6,0,0,1-14.57-9.53A96.67,96.67,0,0,1,39.33,163.5a103.4,103.4,0,0,1-10.66-14.94,108.1,108.1,0,0,1-8.09-17.16,111.92,111.92,0,0,1-6.8-38.69,107.15,107.15,0,0,1,1.76-18.89,102.2,102.2,0,0,1,4.92-17.67,96.7,96.7,0,0,1,7.82-16A90.94,90.94,0,0,1,38.73,26.19,83.38,83.38,0,0,1,51.54,14.81,78.38,78.38,0,0,1,66.42,6.42a76.8,76.8,0,0,1,34.09-6,78.69,78.69,0,0,1,16.86,2.81,83.12,83.12,0,0,1,15.91,6.34,89.6,89.6,0,0,1,14.57,9.53A96.67,96.67,0,0,1,160.67,31.5a103.4,103.4,0,0,1,10.66,14.94,108.1,108.1,0,0,1,8.09,17.16,110.64,110.64,0,0,1,5.11,19,111.45,111.45,0,0,1,1.69,19.65,107.15,107.15,0,0,1-1.76,18.89,102.2,102.2,0,0,1-4.92,17.67,96.7,96.7,0,0,1-7.82,16,90.94,90.94,0,0,1-10.45,13.93,83.38,83.38,0,0,1-12.81,11.38,78.38,78.38,0,0,1-14.88,8.39,76.82,76.82,0,0,1-30,6.1ZM96.3.85A75.67,75.67,0,0,0,83.21,2C36.89,10.13,6.73,59.6,16,112.27c4.49,25.51,17.45,48,36.49,63.22S94.35,197,116.79,193l0,.26,0-.26c46.32-8.14,76.48-57.61,67.23-110.28C175.64,35.05,137.77.85,96.3.85Z"/><path class="cls-1" d="M99.9,195a97,97,0,0,1-47.21-12.24,98.89,98.89,0,0,1-15.4-10.61,97.59,97.59,0,0,1-23.5-29.06,96.59,96.59,0,0,1-7.24-17.74,97.33,97.33,0,0,1,8.19-75.16,98.89,98.89,0,0,1,10.61-15.4,97.59,97.59,0,0,1,29.06-23.5A96.59,96.59,0,0,1,72.15,4.05a97.33,97.33,0,0,1,75.16,8.19,98.89,98.89,0,0,1,15.4,10.61,97.59,97.59,0,0,1,23.5,29.06,96.59,96.59,0,0,1,7.24,17.74,97.33,97.33,0,0,1-8.19,75.16,98.89,98.89,0,0,1-10.61,15.4,97.59,97.59,0,0,1-29.06,23.5A96.59,96.59,0,0,1,127.85,191a97.84,97.84,0,0,1-19.41,3.68l0-.26,0,.26Q104.18,195,99.9,195ZM100.07.52q-4.2,0-8.47.37a97,97,0,0,0-54,170.86A97,97,0,1,0,100.07.52Z"/><rect class="cls-2" width="200" height="195"/></g></g></svg>