<svg xmlns="http://www.w3.org/2000/svg" viewBox="0 0 200 220"><defs><style>.cls-1,.cls-10,.cls-100,.cls-101,.cls-102,.cls-103,.cls-104,.cls-105,.cls-106,.cls-107,.cls-108,.cls-109,.cls-11,.cls-110,.cls-111,.cls-112,.cls-113,.cls-114,.cls-115,.cls-116,.cls-117,.cls-118,.cls-119,.cls-12,.cls-120,.cls-121,.cls-122,.cls-123,.cls-124,.cls-125,.cls-126,.cls-127,.cls-128,.cls-129,.cls-13,.cls-130,.cls-131,.cls-132,.cls-133,.cls-134,.cls-135,.cls-136,.cls-137,.cls-138,.cls-139,.cls-14,.cls-140,.cls-141,.cls-142,.cls-143,.cls-144,.cls-145,.cls-146,.cls-147,.cls-148,.cls-149,.cls-15,.cls-150,.cls-151,.cls-152,.cls-153,.cls-154,.cls-155,.cls-156,.cls-157,.cls-158,.cls-159,.cls-16,.cls-160,.cls-161,.cls-162,.cls-163,.cls-164,.cls-165,.cls-166,.cls-167,.cls-168,.cls-169,.cls-17,.cls-170,.cls-171,.cls-172,.cls-173,.cls-174,.cls-175,.cls-176,.cls-177,.cls-178,.cls-179,.cls-18,.cls-180,.cls-181,.cls-182,.cls-183,.cls-184,.cls-185,.cls-186,.cls-187,.cls-188,.cls-19,.cls-2,.cls-20,.cls-21,.cls-22,.cls-23,.cls-24,.cls-25,.cls-26,.cls-27,.cls-28,.cls-29,.cls-3,.cls-30,.cls-31,.cls-32,.cls-33,.cls-34,.cls-35,.cls-36,.cls-37,.cls-38,.cls-39,.cls-4,.cls-40,.cls-41,.cls-42,.cls-43,.cls-44,.cls-45,.cls-46,.cls-47,.cls-48,.cls-49,.cls-5,.cls-50,.cls-51,.cls-52,.cls-53,.cls-54,.cls-55,.cls-56,.cls-57,.cls-58,.cls-59,.cls-6,.cls-60,.cls-61,.cls-62,.cls-63,.cls-64,.cls-65,.cls-66,.cls-67,.cls-68,.cls-69,.cls-7,.cls-70,.cls-71,.cls-72,.cls-73,.cls-74,.cls-75,.cls-76,.cls-77,.cls-78,.cls-79,.cls-8,.cls-80,.cls-81,.cls-82,.cls-83,.cls-84,.cls-85,.cls-86,.cls-87,.cls-88,.cls-89,.cls-9,.cls-90,.cls-91,.cls-92,.cls-93,.cls-94,.cls-95,.cls-96,.cls-97,.cls-98,.cls-99{fill:#004f98;}.cls-2{fill-opacity:0.36;}.cls-3{fill-opacity:0.36;}.cls-4{fill-opacity:0.35;}.cls-5{fill-opacity:0.36;}.cls-6{fill-opacity:0.36;}.cls-7{fill-opacity:0.35;}.cls-8{fill-opacity:0.36;}.cls-9{fill-opacity:0.36;}.cls-10{fill-opacity:0.36;}.cls-11{fill-opacity:0.36;}.cls-12{fill-opacity:0.36;}.cls-13{fill-opacity:0.36;}.cls-14{fill-opacity:0.35;}.cls-15{fill-opacity:0.36;}.cls-16{fill-opacity:0.36;}.cls-17{fill-opacity:0.35;}.cls-18{fill-opacity:0.35;}.cls-19{fill-opacity:0.36;}.cls-20{fill-opacity:0.36;}.cls-21{fill-opacity:0.36;}.cls-22{fill-opacity:0.36;}.cls-23{fill-opacity:0.35;}.cls-24{fill-opacity:0.36;}.cls-25{fill-opacity:0.36;}.cls-26{fill-opacity:0.35;}.cls-27{fill-opacity:0.36;}.cls-28{fill-opacity:0.35;}.cls-29{fill-opacity:0.36;}.cls-30{fill-opacity:0.36;}.cls-31{fill-opacity:0.36;}.cls-32{fill-opacity:0.36;}.cls-33{fill-opacity:0.36;}.cls-34{fill-opacity:0.36;}.cls-35{fill-opacity:0.36;}.cls-36{fill-opacity:0.36;}.cls-37{fill-opacity:0.36;}.cls-38{fill-opacity:0.35;}.cls-39{fill-opacity:0.36;}.cls-40{fill-opacity:0.35;}.cls-41{fill-opacity:0.36;}.cls-42{fill-opacity:0.36;}.cls-43{fill-opacity:0.36;}.cls-44{fill-opacity:0.36;}.cls-45{fill-opacity:0.36;}.cls-46{fill-opacity:0.36;}.cls-47{fill-opacity:0.35;}.cls-48{fill-opacity:0.36;}.cls-49{fill-opacity:0.36;}.cls-50{fill-opacity:0.35;}.cls-51{fill-opacity:0.36;}.cls-52{fill-opacity:0.36;}.cls-53{fill-opacity:0.35;}.cls-54{fill-opacity:0.35;}.cls-55{fill-opacity:0.36;}.cls-56{fill-opacity:0.36;}.cls-57{fill-opacity:0.36;}.cls-58{fill-opacity:0.36;}.cls-59{fill-opacity:0.36;}.cls-60{fill-opacity:0.36;}.cls-61{fill-opacity:0.36;}.cls-62{fill-opacity:0.35;}.cls-63{fill-opacity:0.36;}.cls-64{fill-opacity:0.36;}.cls-65{fill-opacity:0.36;}.cls-66{fill-opacity:0.36;}.cls-67{fill-opacity:0.36;}.cls-68{fill-opacity:0.36;}.cls-69{fill-opacity:0.36;}.cls-70{fill-opacity:0.35;}.cls-71{fill-opacity:0.35;}.cls-72{fill-opacity:0.35;}.cls-73{fill-opacity:0.36;}.cls-74{fill-opacity:0.36;}.cls-75{fill-opacity:0.36;}.cls-76{fill-opacity:0.36;}.cls-77{fill-opacity:0.36;}.cls-78{fill-opacity:0.36;}.cls-79{fill-opacity:0.36;}.cls-80{fill-opacity:0.35;}.cls-81{fill-opacity:0.36;}.cls-82{fill-opacity:0.36;}.cls-83{fill-opacity:0.36;}.cls-84{fill-opacity:0.35;}.cls-85{fill-opacity:0.36;}.cls-86{fill-opacity:0.36;}.cls-87{fill-opacity:0.36;}.cls-88{fill-opacity:0.36;}.cls-89{fill-opacity:0.36;}.cls-90{fill-opacity:0.36;}.cls-91{fill-opacity:0.36;}.cls-92{fill-opacity:0.36;}.cls-93{fill-opacity:0.36;}.cls-94{fill-opacity:0.36;}.cls-95{fill-opacity:0.36;}.cls-96{fill-opacity:0.35;}.cls-97{fill-opacity:0.36;}.cls-98{fill-opacity:0.36;}.cls-99{fill-opacity:0.36;}.cls-100{fill-opacity:0.36;}.cls-101{fill-opacity:0.36;}.cls-102{fill-opacity:0.36;}.cls-103{fill-opacity:0.36;}.cls-104{fill-opacity:0.36;}.cls-105{fill-opacity:0.36;}.cls-106{fill-opacity:0.36;}.cls-107{fill-opacity:0.36;}.cls-108{fill-opacity:0.36;}.cls-109{fill-opacity:0.35;}.cls-110{fill-opacity:0.36;}.cls-111{fill-opacity:0.36;}.cls-112{fill-opacity:0.36;}.cls-113{fill-opacity:0.36;}.cls-114{fill-opacity:0.36;}.cls-115{fill-opacity:0.36;}.cls-116{fill-opacity:0.36;}.cls-117{fill-opacity:0.36;}.cls-118{fill-opacity:0.36;}.cls-119{fill-opacity:0.36;}.cls-120{fill-opacity:0.36;}.cls-121{fill-opacity:0.35;}.cls-122{fill-opacity:0.36;}.cls-123{fill-opacity:0.36;}.cls-124{fill-opacity:0.36;}.cls-125{fill-opacity:0.36;}.cls-126{fill-opacity:0.36;}.cls-127{fill-opacity:0.36;}.cls-128{fill-opacity:0.36;}.cls-129{fill-opacity:0.36;}.cls-130{fill-opacity:0.35;}.cls-131{fill-opacity:0.36;}.cls-132{fill-opacity:0.36;}.cls-133{fill-opacity:0.36;}.cls-134{fill-opacity:0.36;}.cls-135{fill-opacity:0.36;}.cls-136{fill-opacity:0.36;}.cls-137{fill-opacity:0.36;}.cls-138{fill-opacity:0.36;}.cls-139{fill-opacity:0.36;}.cls-140{fill-opacity:0.36;}.cls-141{fill-opacity:0.36;}.cls-142{fill-opacity:0.36;}.cls-143{fill-opacity:0.36;}.cls-144{fill-opacity:0.36;}.cls-145{fill-opacity:0.35;}.cls-146{fill-opacity:0.36;}.cls-147{fill-opacity:0.36;}.cls-148{fill-opacity:0.36;}.cls-149{fill-opacity:0.36;}.cls-150{fill-opacity:0.36;}.cls-151{fill-opacity:0.36;}.cls-152{fill-opacity:0.36;}.cls-153{fill-opacity:0.35;}.cls-154{fill-opacity:0.35;}.cls-155{fill-opacity:0.36;}.cls-156{fill-opacity:0.35;}.cls-157{fill-opacity:0.36;}.cls-158{fill-opacity:0.35;}.cls-159{fill-opacity:0.36;}.cls-160{fill-opacity:0.36;}.cls-161{fill-opacity:0.36;}.cls-162{fill-opacity:0.36;}.cls-163{fill-opacity:0.36;}.cls-164{fill-opacity:0.36;}.cls-165{fill-opacity:0.35;}.cls-166{fill-opacity:0.36;}.cls-167{fill-opacity:0.35;}.cls-168{fill-opacity:0.36;}.cls-169{fill-opacity:0.36;}.cls-170{fill-opacity:0.36;}.cls-171{fill-opacity:0.36;}.cls-172{fill-opacity:0.36;}.cls-173{fill-opacity:0.35;}.cls-174{fill-opacity:0.36;}.cls-175{fill-opacity:0.36;}.cls-176{fill-opacity:0.36;}.cls-177{fill-opacity:0.36;}.cls-178{fill-opacity:0.36;}.cls-179{fill-opacity:0.36;}.cls-180{fill-opacity:0.36;}.cls-181{fill-opacity:0.36;}.cls-182{fill-opacity:0.36;}.cls-183{fill-opacity:0.36;}.cls-184{fill-opacity:0.36;}.cls-185{fill-opacity:0.36;}.cls-186{fill-opacity:0.36;}.cls-187{fill-opacity:0.36;}.cls-188{fill-opacity:0.36;}.cls-189{fill:none;}</style></defs><g id="Layer_2" data-name="Layer 2"><g id="Ñëîé_1" data-name="Ñëîé 1"><path class="cls-1" d="M68.29,107.61a.11.11,0,0,1,.12.11.12.12,0,0,1-.12.12.11.11,0,0,1-.11-.12A.11.11,0,0,1,68.29,107.61Z"/><path class="cls-1" d="M97.08,101.93a.11.11,0,0,1,.11.11.11.11,0,1,1-.22,0A.11.11,0,0,1,97.08,101.93Z"/><path class="cls-1" d="M67.37,133.49a.3.3,0,1,1-.3.3A.29.29,0,0,1,67.37,133.49Z"/><path class="cls-1" d="M126.53,96.12a.11.11,0,1,1-.11.11A.11.11,0,0,1,126.53,96.12Z"/><path class="cls-1" d="M56.64,90.37a.48.48,0,0,1,.48.49.48.48,0,0,1-1,0A.48.48,0,0,1,56.64,90.37Z"/><path class="cls-1" d="M96.81,128a.29.29,0,0,1,.3.3.3.3,0,0,1-.3.3.31.31,0,0,1-.3-.3A.3.3,0,0,1,96.81,128Z"/><path class="cls-1" d="M156.66,90.17a.11.11,0,0,1,.12.11.12.12,0,0,1-.12.12.11.11,0,0,1-.11-.12A.11.11,0,0,1,156.66,90.17Z"/><circle class="cls-1" cx="86.27" cy="84.79" r="0.49"/><path class="cls-1" d="M66.4,160.69a.39.39,0,1,1-.38.38A.38.38,0,0,1,66.4,160.69Z"/><path class="cls-1" d="M127,122.33a.31.31,0,1,1-.31.31A.31.31,0,0,1,127,122.33Z"/><path class="cls-1" d="M187.5,84.08a.12.12,0,0,1,.12.12.11.11,0,0,1-.12.11.11.11,0,0,1-.11-.11A.11.11,0,0,1,187.5,84.08Z"/><path class="cls-1" d="M55.4,116.83a.59.59,0,0,1,.59.59.59.59,0,1,1-.59-.59Z"/><path class="cls-1" d="M116.61,78.07a.5.5,0,1,1-.5.5A.49.49,0,0,1,116.61,78.07Z"/><path class="cls-1" d="M96.53,155.37a.39.39,0,0,1,.39.39.39.39,0,0,1-.78,0A.39.39,0,0,1,96.53,155.37Z"/><path class="cls-1" d="M157.8,116.55a.31.31,0,0,1,0,.62.31.31,0,0,1,0-.62Z"/><path class="cls-1" d="M44.17,72.11a.71.71,0,1,1-.7.71A.7.7,0,0,1,44.17,72.11Z"/><path class="cls-1" d="M85.73,110.92a.6.6,0,1,1,0,1.2.6.6,0,0,1,0-1.2Z"/><circle class="cls-1" cx="147.67" cy="72.2" r="0.5"/><circle class="cls-1" cx="65.38" cy="189.67" r="0.27"/><path class="cls-1" d="M127.38,149.92a.39.39,0,1,1-.39.39A.39.39,0,0,1,127.38,149.92Z"/><path class="cls-1" d="M189.39,110.64a.31.31,0,1,1-.31.31A.31.31,0,0,1,189.39,110.64Z"/><path class="cls-1" d="M74.7,65.6a.71.71,0,0,1,0,1.42.71.71,0,1,1,0-1.42Z"/><path class="cls-1" d="M54.11,144.56a.72.72,0,1,1-.71.71A.71.71,0,0,1,54.11,144.56Z"/><path class="cls-1" d="M116.8,104.87a.61.61,0,1,1-.6.61A.6.6,0,0,1,116.8,104.87Z"/><circle class="cls-1" cx="179.49" cy="65.68" r="0.51"/><path class="cls-1" d="M96.23,184.29a.27.27,0,0,1,.28.28.28.28,0,0,1-.28.28.29.29,0,0,1-.28-.28A.28.28,0,0,1,96.23,184.29Z"/><path class="cls-1" d="M159,144.33a.4.4,0,1,1-.4.4A.4.4,0,0,1,159,144.33Z"/><path class="cls-1" d="M42.59,99.13a.76.76,0,0,1,0,1.51.76.76,0,0,1,0-1.51Z"/><ellipse class="cls-1" cx="105.97" cy="59.64" rx="0.72" ry="0.72"/><path class="cls-1" d="M85.17,138.85a.72.72,0,0,1,.72.72.72.72,0,1,1-1.44,0A.72.72,0,0,1,85.17,138.85Z"/><path class="cls-1" d="M148.63,98.67a.62.62,0,1,1-.61.62A.61.61,0,0,1,148.63,98.67Z"/><path class="cls-1" d="M64.32,219.33a.34.34,0,0,1,0,.67.34.34,0,0,1,0-.67Z"/><circle class="cls-1" cx="127.84" cy="179.35" r="0.28"/><path class="cls-1" d="M191.38,138.61a.41.41,0,1,1-.41.41A.4.4,0,0,1,191.38,138.61Z"/><path class="cls-1" d="M30.8,52.58a.89.89,0,1,1-.89.89A.89.89,0,0,1,30.8,52.58Z"/><path class="cls-1" d="M73.85,92.79a.77.77,0,1,1-.76.76A.76.76,0,0,1,73.85,92.79Z"/><path class="cls-1" d="M138,52.08a.73.73,0,1,1-.72.73A.73.73,0,0,1,138,52.08Z"/><path class="cls-1" d="M52.75,173.79a.72.72,0,1,1-.72.72A.72.72,0,0,1,52.75,173.79Z"/><path class="cls-1" d="M117,133a.74.74,0,0,1,0,1.47.74.74,0,0,1,0-1.47Z"/><path class="cls-1" d="M181.25,92.32a.62.62,0,0,1,0,1.24.62.62,0,0,1,0-1.24Z"/><circle class="cls-1" cx="95.92" cy="214.82" r="0.34"/><path class="cls-1" d="M160.24,173.7a.29.29,0,1,1-.28.29A.29.29,0,0,1,160.24,173.7Z"/><path class="cls-1" d="M62.28,45.58a.91.91,0,1,1-.9.9A.9.9,0,0,1,62.28,45.58Z"/><ellipse class="cls-1" cx="40.92" cy="128.32" rx="0.92" ry="0.93"/><path class="cls-1" d="M105.91,86.29a.78.78,0,1,1-.77.77A.77.77,0,0,1,105.91,86.29Z"/><path class="cls-1" d="M170.89,45.07a.74.74,0,1,1-.73.73A.74.74,0,0,1,170.89,45.07Z"/><path class="cls-1" d="M84.57,168.3a.73.73,0,0,1,0,1.46.73.73,0,0,1,0-1.46Z"/><path class="cls-1" d="M149.63,127a.75.75,0,1,1-.74.75A.74.74,0,0,1,149.63,127Z"/><path class="cls-1" d="M128.33,209.5a.34.34,0,0,1,0,.68.34.34,0,1,1,0-.68Z"/><path class="cls-1" d="M193.46,168.21a.29.29,0,1,1-.29.29A.29.29,0,0,1,193.46,168.21Z"/><path class="cls-1" d="M28.82,80.11a.94.94,0,1,1-.93.94A.93.93,0,0,1,28.82,80.11Z"/><path class="cls-1" d="M94.55,38.4a.92.92,0,1,1-.91.92A.92.92,0,0,1,94.55,38.4Z"/><path class="cls-1" d="M73,121.25a.94.94,0,1,1-.93.94A.94.94,0,0,1,73,121.25Z"/><ellipse class="cls-1" cx="138.78" cy="80.41" rx="0.78" ry="0.78"/><path class="cls-1" d="M51.33,204.59a.65.65,0,1,1-.65.65A.65.65,0,0,1,51.33,204.59Z"/><path class="cls-1" d="M117.21,162.68a.74.74,0,1,1-.74.74A.74.74,0,0,1,117.21,162.68Z"/><path class="cls-1" d="M183.1,120.84a.75.75,0,1,1-.75.75A.74.74,0,0,1,183.1,120.84Z"/><path class="cls-1" d="M161.56,204.4a.34.34,0,0,1,.34.34.35.35,0,0,1-.34.35.35.35,0,0,1-.35-.35A.35.35,0,0,1,161.56,204.4Z"/><path class="cls-1" d="M16.43,31.4a1.28,1.28,0,1,1-1.27,1.28A1.27,1.27,0,0,1,16.43,31.4Z"/><ellipse class="cls-1" cx="61.08" cy="74.24" rx="0.95" ry="0.95"/><ellipse class="cls-1" cx="127.67" cy="31.96" rx="0.92" ry="0.93"/><path class="cls-1" d="M39.18,157.09a1.13,1.13,0,1,1-1.12,1.12A1.12,1.12,0,0,1,39.18,157.09Z"/><path class="cls-1" d="M105.83,114.94a1,1,0,1,1-.94,1A1,1,0,0,1,105.83,114.94Z"/><ellipse class="cls-1" cx="172.5" cy="73.58" rx="0.79" ry="0.79"/><path class="cls-1" d="M84,199.36a.66.66,0,1,1-.66.66A.66.66,0,0,1,84,199.36Z"/><path class="cls-1" d="M150.69,156.9a.76.76,0,1,1-.75.75A.76.76,0,0,1,150.69,156.9Z"/><path class="cls-1" d="M195.65,199.16a.35.35,0,1,1-.35.35A.35.35,0,0,1,195.65,199.16Z"/><path class="cls-1" d="M48.91,23.86a1.29,1.29,0,1,1-1.28,1.29A1.29,1.29,0,0,1,48.91,23.86Z"/><path class="cls-1" d="M26.73,109.08a1,1,0,1,1-1,1A1,1,0,0,1,26.73,109.08Z"/><path class="cls-1" d="M94.19,66.28a1,1,0,1,1-1,1A1,1,0,0,1,94.19,66.28Z"/><path class="cls-1" d="M161.64,23.48a.94.94,0,1,1-.93.94A.94.94,0,0,1,161.64,23.48Z"/><ellipse class="cls-1" cx="72.03" cy="152.32" rx="1.13" ry="1.14"/><path class="cls-1" d="M139.56,108.48a1,1,0,1,1-1,1A1,1,0,0,1,139.56,108.48Z"/><path class="cls-1" d="M117.43,194a.67.67,0,0,1,0,1.34.67.67,0,0,1,0-1.34Z"/><path class="cls-1" d="M185.05,151a.76.76,0,0,1,0,1.52.76.76,0,1,1,0-1.52Z"/><ellipse class="cls-1" cx="13.99" cy="60.77" rx="1.23" ry="1.24"/><ellipse class="cls-1" cx="82.26" cy="17.43" rx="1.3" ry="1.31"/><path class="cls-1" d="M59.82,102.46a1,1,0,1,1-1,1A1,1,0,0,1,59.82,102.46Z"/><path class="cls-1" d="M128.17,59.1a1,1,0,1,1-1,1A1,1,0,0,1,128.17,59.1Z"/><path class="cls-1" d="M37.33,188.67a1,1,0,1,1-1,1A1,1,0,0,1,37.33,188.67Z"/><path class="cls-1" d="M105.76,145.11a1.15,1.15,0,1,1-1.15,1.15A1.14,1.14,0,0,1,105.76,145.11Z"/><path class="cls-1" d="M174.19,101.84a1,1,0,1,1-1,1A1,1,0,0,1,174.19,101.84Z"/><path class="cls-1" d="M151.8,188.48a.68.68,0,1,1,0,1.36.68.68,0,0,1,0-1.36Z"/><path class="cls-1" d="M47.31,52.17a1.25,1.25,0,1,1-1.24,1.25A1.25,1.25,0,0,1,47.31,52.17Z"/><path class="cls-1" d="M116.49,8.17a1.33,1.33,0,1,1-1.32,1.32A1.32,1.32,0,0,1,116.49,8.17Z"/><path class="cls-1" d="M24.54,139.41a1.24,1.24,0,1,1-1.24,1.24A1.23,1.23,0,0,1,24.54,139.41Z"/><path class="cls-1" d="M93.79,95.66a1,1,0,0,1,0,2,1,1,0,0,1,0-2Z"/><path class="cls-1" d="M163.06,51.71a1,1,0,1,1-1,1A1,1,0,0,1,163.06,51.71Z"/><path class="cls-1" d="M71,183a1,1,0,1,1-1,1A1,1,0,0,1,71,183Z"/><path class="cls-1" d="M140.39,138.87a1.17,1.17,0,1,1-1.16,1.17A1.17,1.17,0,0,1,140.39,138.87Z"/><path class="cls-1" d="M187.1,182.83a.67.67,0,0,1,.68.68.68.68,0,1,1-1.36,0A.67.67,0,0,1,187.1,182.83Z"/><path class="cls-1" d="M11.42,89.16a1.22,1.22,0,1,1,0,2.44,1.22,1.22,0,0,1,0-2.44Z"/><path class="cls-1" d="M81.54,44.6a1.27,1.27,0,1,1-1.26,1.27A1.27,1.27,0,0,1,81.54,44.6Z"/><path class="cls-1" d="M151.66,0a1.35,1.35,0,0,1,0,2.69,1.33,1.33,0,0,1-1.33-1.35A1.33,1.33,0,0,1,151.66,0Z"/><path class="cls-1" d="M58.49,133a1.26,1.26,0,1,1-1.25,1.25A1.25,1.25,0,0,1,58.49,133Z"/><path class="cls-1" d="M128.7,88.68a1,1,0,1,1-1,1A1,1,0,0,1,128.7,88.68Z"/><ellipse class="cls-1" cx="105.68" cy="178.27" rx="1.05" ry="1.06"/><ellipse class="cls-1" cx="175.97" cy="133.66" rx="1.18" ry="1.19"/><path class="cls-1" d="M45.62,82a1.24,1.24,0,1,1-1.23,1.24A1.24,1.24,0,0,1,45.62,82Z"/><path class="cls-1" d="M116.71,36.82a1.29,1.29,0,0,1,0,2.57,1.29,1.29,0,0,1,0-2.57Z"/><path class="cls-1" d="M22.22,171.52a1.39,1.39,0,1,1-1.38,1.38A1.38,1.38,0,0,1,22.22,171.52Z"/><ellipse class="cls-1" cx="93.38" cy="127.73" rx="1.27" ry="1.27"/><path class="cls-1" d="M164.56,81.5a1,1,0,1,1-1,1A1,1,0,0,1,164.56,81.5Z"/><path class="cls-1" d="M141.26,171.26a1.07,1.07,0,1,1-1.06,1.07A1.07,1.07,0,0,1,141.26,171.26Z"/><ellipse class="cls-1" cx="8.71" cy="121.65" rx="1.61" ry="1.62"/><ellipse class="cls-1" cx="80.78" cy="75.89" rx="1.25" ry="1.25"/><path class="cls-1" d="M152.86,28.83a1.31,1.31,0,1,1-1.3,1.3A1.3,1.3,0,0,1,152.86,28.83Z"/><ellipse class="cls-1" cx="57.09" cy="166.81" rx="1.4" ry="1.41"/><path class="cls-1" d="M129.25,119.71A1.29,1.29,0,1,1,128,121,1.29,1.29,0,0,1,129.25,119.71Z"/><path class="cls-1" d="M177.85,165.13a1.09,1.09,0,1,1-1.08,1.08A1.08,1.08,0,0,1,177.85,165.13Z"/><path class="cls-1" d="M43.84,113.11a1.64,1.64,0,1,1-1.63,1.64A1.63,1.63,0,0,1,43.84,113.11Z"/><path class="cls-1" d="M116.93,67.07a1.28,1.28,0,1,1-1.26,1.27A1.27,1.27,0,0,1,116.93,67.07Z"/><path class="cls-1" d="M93,159.11a1.43,1.43,0,1,1-1.42,1.43A1.43,1.43,0,0,1,93,159.11Z"/><ellipse class="cls-1" cx="166.14" cy="114.08" rx="1.3" ry="1.31"/><path class="cls-1" d="M5.84,152.86A1.85,1.85,0,1,1,4,154.71,1.84,1.84,0,0,1,5.84,152.86Z"/><ellipse class="cls-1" cx="79.98" cy="107.65" rx="1.65" ry="1.66"/><ellipse class="cls-1" cx="154.13" cy="60.57" rx="1.28" ry="1.29"/><ellipse class="cls-1" cx="129.84" cy="154.09" rx="1.44" ry="1.45"/><ellipse class="cls-1" cx="41.95" cy="148.09" rx="1.87" ry="1.88"/><ellipse class="cls-1" cx="117.17" cy="100.34" rx="1.68" ry="1.69"/><ellipse class="cls-1" cx="167.82" cy="147.45" rx="1.46" ry="1.47"/><ellipse class="cls-1" cx="79.13" cy="141.27" rx="1.89" ry="1.91"/><ellipse class="cls-1" cx="155.47" cy="92.81" rx="1.7" ry="1.71"/><ellipse class="cls-1" cx="117.43" cy="134.25" rx="1.92" ry="1.93"/><ellipse class="cls-1" cx="156.89" cy="127.02" rx="1.95" ry="1.96"/><path class="cls-2" d="M68.32,107.86l28.79-5.68a.14.14,0,0,0,.11-.16.15.15,0,0,0-.17-.12h0l-28.78,5.69a.13.13,0,0,0-.11.16.13.13,0,0,0,.16.11Z"/><path class="cls-3" d="M68.15,107.72l-.92,26.06a.14.14,0,0,0,.13.15.15.15,0,0,0,.15-.14l.92-26.06a.14.14,0,0,0-.13-.15.15.15,0,0,0-.15.14Z"/><path class="cls-4" d="M56.49,91,68.18,107.8a.13.13,0,0,0,.19,0,.14.14,0,0,0,0-.2L56.78,90.76a.18.18,0,0,0-.24-.05A.19.19,0,0,0,56.49,91Z"/><path class="cls-5" d="M97.11,102.18l29.45-5.81a.14.14,0,0,0-.06-.28L97.05,101.9a.16.16,0,0,0-.11.17A.14.14,0,0,0,97.11,102.18Z"/><path class="cls-6" d="M96.94,102l-.27,26.23a.15.15,0,0,0,.14.15.14.14,0,0,0,.14-.14L97.22,102a.14.14,0,0,0-.14-.14A.14.14,0,0,0,96.94,102Z"/><path class="cls-7" d="M86.12,84.88,97,102.12a.14.14,0,0,0,.2,0,.14.14,0,0,0,0-.18L86.42,84.69a.18.18,0,0,0-.3.19Z"/><path class="cls-8" d="M67.39,133.93l29.45-5.51a.16.16,0,0,0,.11-.17.14.14,0,0,0-.16-.11l-29.45,5.51a.14.14,0,0,0,0,.28Z"/><path class="cls-9" d="M126.56,96.37l30.13-6a.14.14,0,0,0,.11-.16.14.14,0,0,0-.17-.11L126.5,96.09a.14.14,0,0,0,.06.28Z"/><path class="cls-10" d="M67.23,133.78l-1,27.29a.14.14,0,0,0,.13.14.14.14,0,0,0,.15-.13l1-27.29a.14.14,0,0,0-.14-.14A.13.13,0,0,0,67.23,133.78Z"/><path class="cls-11" d="M126.39,96.23l.42,26.41a.14.14,0,0,0,.14.14.15.15,0,0,0,.14-.15h0l-.42-26.4a.14.14,0,0,0-.14-.14A.14.14,0,0,0,126.39,96.23Z"/><path class="cls-12" d="M56.67,91,86.31,85a.18.18,0,0,0-.08-.35L56.6,90.69a.18.18,0,0,0-.13.21A.17.17,0,0,0,56.67,91Z"/><path class="cls-13" d="M55.23,117.55l12,16.32a.13.13,0,0,0,.19,0,.14.14,0,0,0,0-.2h0l-11.9-16.41a.22.22,0,0,0-.35.26Z"/><path class="cls-14" d="M116.45,78.66l10,17.64a.13.13,0,0,0,.19,0,.14.14,0,0,0,.05-.19l-9.89-17.68a.16.16,0,0,0-.24-.06A.17.17,0,0,0,116.45,78.66Z"/><path class="cls-15" d="M96.84,128.42,127,122.77a.13.13,0,0,0,.1-.17.14.14,0,0,0-.15-.1l-30.13,5.64a.14.14,0,0,0-.12.16A.15.15,0,0,0,96.84,128.42Z"/><path class="cls-16" d="M156.69,90.42l30.84-6.09a.14.14,0,0,0,.11-.16.14.14,0,0,0-.16-.11l-30.85,6.09a.14.14,0,0,0,.06.27Z"/><path class="cls-17" d="M56.46,90.85l-1.27,26.56a.22.22,0,0,0,.2.23.23.23,0,0,0,.23-.21h0l1.19-26.56a.17.17,0,0,0-.17-.18A.18.18,0,0,0,56.46,90.85Z"/><path class="cls-18" d="M96.67,128.27l-.28,27.48a.15.15,0,0,0,.14.15.14.14,0,0,0,.14-.14h0L97,128.28a.14.14,0,0,0-.14-.14.14.14,0,0,0-.14.13Z"/><path class="cls-19" d="M156.52,90.29l1.14,26.58a.13.13,0,0,0,.14.13.14.14,0,0,0,.14-.14L156.8,90.28a.14.14,0,0,0-.14-.14A.15.15,0,0,0,156.52,90.29Z"/><path class="cls-20" d="M44,73,56.49,91a.18.18,0,0,0,.25,0,.16.16,0,0,0,0-.24L44.38,72.67a.25.25,0,0,0-.35-.06A.25.25,0,0,0,44,73Z"/><path class="cls-21" d="M86.31,85l30.33-6.22a.18.18,0,0,0-.07-.35h0L86.23,84.61a.18.18,0,0,0,.08.35Z"/><path class="cls-22" d="M85.55,111.64,96.7,128.35a.12.12,0,0,0,.19,0,.14.14,0,0,0,0-.18l-11-16.8a.21.21,0,0,0-.3,0A.22.22,0,0,0,85.55,111.64Z"/><path class="cls-23" d="M147.51,72.28l9,18.07a.13.13,0,0,0,.18.06.15.15,0,0,0,.07-.19h0l-9-18.1a.18.18,0,1,0-.32.16Z"/><path class="cls-24" d="M66.42,161.21l30.13-5.32a.14.14,0,1,0,0-.27h0l-30.13,5.31a.16.16,0,0,0-.11.17A.14.14,0,0,0,66.42,161.21Z"/><path class="cls-25" d="M127,122.77,157.82,117a.14.14,0,0,0,.12-.16.15.15,0,0,0-.17-.12l-30.85,5.78a.15.15,0,0,0-.1.17A.13.13,0,0,0,127,122.77Z"/><path class="cls-26" d="M86.09,84.78l-.57,26.74a.21.21,0,0,0,.21.22.21.21,0,0,0,.22-.21l.5-26.74a.17.17,0,0,0-.18-.17A.18.18,0,0,0,86.09,84.78Z"/><path class="cls-27" d="M66.26,161.07l-1,28.59a.15.15,0,0,0,.14.15.14.14,0,0,0,.14-.14l1-28.59a.15.15,0,0,0-.14-.15A.14.14,0,0,0,66.26,161.07Z"/><path class="cls-28" d="M126.81,122.64l.43,27.67a.14.14,0,0,0,.15.14.14.14,0,0,0,.14-.14h0l-.44-27.68a.14.14,0,0,0-.15-.13A.13.13,0,0,0,126.81,122.64Z"/><path class="cls-29" d="M187.36,84.21,189.25,111a.15.15,0,0,0,.15.13.14.14,0,0,0,.13-.15l-1.89-26.75a.13.13,0,0,0-.15-.13.14.14,0,0,0-.13.15Z"/><path class="cls-30" d="M74.48,66.45,86.12,84.88a.19.19,0,0,0,.25.05.19.19,0,0,0,0-.24L74.91,66.17a.25.25,0,0,0-.35-.08.26.26,0,0,0-.08.36Z"/><path class="cls-24" d="M55.45,117.63l30.32-5.89a.22.22,0,0,0,.17-.26.2.2,0,0,0-.25-.17l-30.33,5.9a.22.22,0,0,0-.17.25A.22.22,0,0,0,55.45,117.63Z"/><path class="cls-31" d="M116.64,78.74l31.07-6.36a.18.18,0,0,0,.14-.22.19.19,0,0,0-.21-.14l-31.07,6.37a.18.18,0,0,0,.07.35Z"/><path class="cls-32" d="M53.91,145.43l12.38,15.73a.14.14,0,0,0,.2,0,.14.14,0,0,0,0-.18L54.32,145.11a.27.27,0,0,0-.37,0A.26.26,0,0,0,53.91,145.43Z"/><path class="cls-33" d="M116.61,105.59l10.22,17.12a.14.14,0,0,0,.19,0,.15.15,0,0,0,0-.19L117,105.37a.22.22,0,0,0-.38.22Z"/><path class="cls-34" d="M179.32,65.75l8.05,18.5a.14.14,0,0,0,.19.07.14.14,0,0,0,.07-.18l-8-18.54a.18.18,0,0,0-.24-.09A.19.19,0,0,0,179.32,65.75Z"/><path class="cls-35" d="M96.55,155.89l30.86-5.44a.15.15,0,0,0,.11-.17.15.15,0,0,0-.16-.11L96.5,155.62a.14.14,0,0,0-.11.16A.13.13,0,0,0,96.55,155.89Z"/><path class="cls-36" d="M157.82,117l31.6-5.91a.16.16,0,0,0,.11-.17.14.14,0,0,0-.16-.11l-31.6,5.91a.16.16,0,0,0-.11.17A.14.14,0,0,0,157.82,117Z"/><path class="cls-37" d="M55.19,117.41l-1.34,27.85a.26.26,0,0,0,.26.26.25.25,0,0,0,.26-.24l1.25-27.85a.21.21,0,0,0-.21-.22A.21.21,0,0,0,55.19,117.41Z"/><path class="cls-38" d="M116.43,78.57l.15,26.91a.22.22,0,0,0,.44,0h0l-.23-26.91a.19.19,0,0,0-.18-.18A.18.18,0,0,0,116.43,78.57Z"/><path class="cls-39" d="M96.39,155.75l-.3,28.82a.14.14,0,0,0,.14.14.14.14,0,0,0,.14-.14l.3-28.81a.15.15,0,0,0-.14-.15A.14.14,0,0,0,96.39,155.75Z"/><path class="cls-40" d="M157.66,116.87l1.19,27.87a.15.15,0,0,0,.15.14.15.15,0,0,0,.14-.15l-1.2-27.87a.14.14,0,1,0-.28,0Z"/><path class="cls-24" d="M44.22,73.07l30.53-6.51a.26.26,0,0,0,.19-.31.25.25,0,0,0-.3-.19L44.12,72.57a.26.26,0,0,0,.1.5Z"/><path class="cls-32" d="M42.37,100.05l12.86,17.5a.22.22,0,0,0,.3,0,.23.23,0,0,0,0-.3L42.81,99.72a.27.27,0,0,0-.38-.06A.28.28,0,0,0,42.37,100.05Z"/><path class="cls-41" d="M105.75,59.77l10.7,18.89a.19.19,0,0,0,.25.06.18.18,0,0,0,.06-.24l-10.56-19a.27.27,0,0,0-.36-.08A.27.27,0,0,0,105.75,59.77Z"/><path class="cls-35" d="M85.77,111.74l31.07-6a.2.2,0,0,0,.17-.25.22.22,0,0,0-.25-.18l-31.07,6a.21.21,0,0,0-.17.25.22.22,0,0,0,.25.18Z"/><path class="cls-42" d="M147.71,72.38l31.82-6.52a.18.18,0,1,0-.08-.36L147.64,72a.18.18,0,1,0,.07.36Z"/><path class="cls-43" d="M85,139.72l11.46,16.12a.15.15,0,0,0,.2,0,.14.14,0,0,0,0-.2L85.38,139.42a.26.26,0,0,0-.37,0A.26.26,0,0,0,85,139.72Z"/><path class="cls-44" d="M148.43,99.39l9.25,17.54a.14.14,0,0,0,.24-.13l-9.1-17.62a.22.22,0,0,0-.39.21Z"/><path class="cls-45" d="M65.41,189.81l30.85-5.1a.15.15,0,0,0,.11-.16.14.14,0,0,0-.16-.12h0l-30.85,5.1a.13.13,0,0,0-.11.16.14.14,0,0,0,.16.12Z"/><path class="cls-46" d="M127.41,150.45,159,144.88a.15.15,0,0,0,.11-.17.14.14,0,0,0-.16-.12l-31.61,5.58a.14.14,0,0,0-.11.17A.15.15,0,0,0,127.41,150.45Z"/><path class="cls-27" d="M43.92,72.8l-1.6,27.07a.27.27,0,0,0,.27.27.26.26,0,0,0,.27-.24l1.56-27.07a.24.24,0,0,0-.24-.26A.25.25,0,0,0,43.92,72.8Z"/><path class="cls-39" d="M85.52,111.52l-.61,28.05a.26.26,0,0,0,.26.26.26.26,0,0,0,.26-.25L86,111.53a.23.23,0,0,0-.21-.23.22.22,0,0,0-.22.22Z"/><path class="cls-47" d="M147.49,72.21l.92,27.08a.22.22,0,0,0,.24.21.23.23,0,0,0,.2-.22l-1-27.09a.18.18,0,0,0-.36,0Z"/><path class="cls-48" d="M65.24,189.66l-1.06,30a.14.14,0,0,0,.13.15.15.15,0,0,0,.15-.14l1.06-30a.12.12,0,0,0-.13-.14A.14.14,0,0,0,65.24,189.66Z"/><path class="cls-49" d="M127.24,150.31l.46,29a.14.14,0,1,0,.28,0l-.45-29a.15.15,0,0,0-.15-.14A.14.14,0,0,0,127.24,150.31Z"/><path class="cls-50" d="M189.25,111l2,28.07a.15.15,0,0,0,.16.13.13.13,0,0,0,.13-.15h0l-2-28.07a.13.13,0,0,0-.15-.13.14.14,0,0,0-.13.15Z"/><path class="cls-51" d="M30.54,53.66,44,73a.26.26,0,0,0,.36.07.27.27,0,0,0,.06-.36L31.07,53.29a.33.33,0,0,0-.46-.06A.32.32,0,0,0,30.54,53.66Z"/><path class="cls-35" d="M74.75,66.56,106,59.9a.27.27,0,0,0,.19-.32.25.25,0,0,0-.3-.19L74.64,66.06a.26.26,0,0,0-.19.31A.25.25,0,0,0,74.75,66.56Z"/><path class="cls-43" d="M73.62,93.71l11.93,17.93a.21.21,0,0,0,.3,0,.22.22,0,0,0,.06-.29l-11.83-18a.27.27,0,0,0-.38-.08A.29.29,0,0,0,73.62,93.71Z"/><path class="cls-52" d="M137.8,52.93l9.71,19.35a.18.18,0,0,0,.32-.16h0l-9.56-19.43a.27.27,0,0,0-.36-.1A.26.26,0,0,0,137.8,52.93Z"/><path class="cls-45" d="M54.16,145.53l31.05-5.7a.27.27,0,0,0,.22-.31.28.28,0,0,0-.31-.21L54.06,145a.26.26,0,0,0,.1.51Z"/><path class="cls-46" d="M116.84,105.69l31.83-6.19a.21.21,0,0,0,.17-.26.22.22,0,0,0-.25-.17l-31.83,6.19a.23.23,0,0,0-.18.26A.22.22,0,0,0,116.84,105.69Z"/><path class="cls-53" d="M52.55,174.68l12.73,15.08a.14.14,0,0,0,.21-.18L53,174.34a.25.25,0,0,0-.36,0,.27.27,0,0,0,0,.37Z"/><path class="cls-54" d="M116.77,133.87l10.49,16.52a.16.16,0,0,0,.2,0,.15.15,0,0,0,.05-.2h0l-10.29-16.65a.27.27,0,0,0-.37-.07A.28.28,0,0,0,116.77,133.87Z"/><path class="cls-55" d="M181.05,93l8.22,18a.14.14,0,0,0,.18.07.15.15,0,0,0,.07-.19l-8.06-18a.23.23,0,0,0-.31-.1A.23.23,0,0,0,181.05,93Z"/><path class="cls-56" d="M96.26,184.71l31.6-5.23a.13.13,0,0,0,.11-.17.14.14,0,0,0-.15-.1l-31.61,5.22a.14.14,0,0,0-.12.16A.15.15,0,0,0,96.26,184.71Z"/><path class="cls-57" d="M159,144.88l32.38-5.72a.14.14,0,0,0,.12-.17.15.15,0,0,0-.17-.12L159,144.59a.14.14,0,0,0-.12.17.15.15,0,0,0,.17.12Z"/><path class="cls-39" d="M74.44,66.3l-.86,27.25a.26.26,0,0,0,.26.28.27.27,0,0,0,.29-.27h0L75,66.32a.26.26,0,0,0-.51,0Z"/><path class="cls-58" d="M53.85,145.26,52.49,174.5a.27.27,0,0,0,.26.27.26.26,0,0,0,.26-.25l1.36-29.24a.26.26,0,0,0-.26-.26A.26.26,0,0,0,53.85,145.26Z"/><path class="cls-49" d="M116.58,105.48l.15,28.25a.25.25,0,0,0,.27.26.25.25,0,0,0,.26-.26L117,105.48a.22.22,0,0,0-.44,0Z"/><path class="cls-50" d="M179.31,65.69,181,93a.22.22,0,0,0,.24.21.23.23,0,0,0,.21-.24h0l-1.8-27.25a.18.18,0,0,0-.2-.17A.18.18,0,0,0,179.31,65.69Z"/><path class="cls-59" d="M96.09,184.57l-.31,30.24a.15.15,0,0,0,.14.15.14.14,0,0,0,.14-.14l.31-30.25a.14.14,0,0,0-.14-.14.14.14,0,0,0-.14.14Z"/><path class="cls-60" d="M158.85,144.74,160.1,174a.15.15,0,0,0,.16.12.14.14,0,0,0,.12-.14l-1.24-29.25a.15.15,0,0,0-.16-.14.13.13,0,0,0-.13.15Z"/><path class="cls-61" d="M62,46.66,74.48,66.45a.26.26,0,0,0,.35.08.26.26,0,0,0,.08-.36L62.55,46.31a.32.32,0,0,0-.45-.09A.33.33,0,0,0,62,46.66Z"/><path class="cls-45" d="M42.64,100.15l31.27-6.32a.28.28,0,0,0,.21-.33.27.27,0,0,0-.32-.22h0L42.53,99.62a.26.26,0,0,0-.2.32A.26.26,0,0,0,42.64,100.15Z"/><path class="cls-46" d="M106,59.9l32.06-6.83a.27.27,0,0,0,.2-.32.26.26,0,0,0-.31-.2l-32.06,6.84a.25.25,0,0,0-.19.31A.26.26,0,0,0,106,59.9Z"/><path class="cls-62" d="M40.66,128.52l13.25,16.91a.25.25,0,0,0,.36,0,.28.28,0,0,0,0-.37h0l-13.13-17a.34.34,0,1,0-.53.41Z"/><path class="cls-54" d="M105.67,87.21l10.94,18.38a.22.22,0,0,0,.3.08.23.23,0,0,0,.08-.3L106.15,86.92a.28.28,0,1,0-.48.29Z"/><path class="cls-55" d="M170.65,45.91l8.67,19.84a.19.19,0,0,0,.25.1.19.19,0,0,0,.09-.25l-8.52-19.9a.27.27,0,0,0-.36-.13A.28.28,0,0,0,170.65,45.91Z"/><path class="cls-56" d="M85.21,139.83,117.05,134a.27.27,0,0,0-.1-.53l-31.83,5.85a.27.27,0,0,0-.21.31A.26.26,0,0,0,85.21,139.83Z"/><path class="cls-57" d="M148.67,99.5l32.63-6.34a.22.22,0,0,0-.09-.44h0l-32.62,6.35a.21.21,0,0,0-.17.26A.21.21,0,0,0,148.67,99.5Z"/><path class="cls-63" d="M64.34,219.81,95.94,215a.14.14,0,0,0,.11-.16.14.14,0,0,0-.15-.11l-31.6,4.85a.14.14,0,0,0-.12.16.15.15,0,0,0,.16.12Z"/><path class="cls-64" d="M127.86,179.48l32.41-5.35a.14.14,0,0,0,.11-.16.14.14,0,0,0-.16-.12l-32.4,5.36a.14.14,0,0,0,0,.27Z"/><path class="cls-65" d="M42.32,99.87,40.59,128.3a.34.34,0,0,0,.33.34.34.34,0,0,0,.34-.3l1.6-28.44a.27.27,0,0,0-.27-.27A.26.26,0,0,0,42.32,99.87Z"/><path class="cls-49" d="M105.71,59.64l-.08,27.42a.28.28,0,0,0,.28.28.28.28,0,0,0,.27-.28l.06-27.42a.27.27,0,0,0-.53,0Z"/><path class="cls-66" d="M84.91,139.57,84.31,169a.27.27,0,0,0,.27.26.26.26,0,0,0,.26-.25l.59-29.46a.26.26,0,1,0-.52,0Z"/><path class="cls-60" d="M148.41,99.29l1,28.46a.28.28,0,0,0,.28.26.27.27,0,0,0,.26-.28l-1.05-28.45a.22.22,0,0,0-.44,0Z"/><path class="cls-67" d="M127.7,179.35l.49,30.5a.13.13,0,0,0,.14.13.13.13,0,0,0,.13-.14l-.48-30.5a.14.14,0,0,0-.14-.14A.15.15,0,0,0,127.7,179.35Z"/><path class="cls-68" d="M191.23,139l2.09,29.48a.14.14,0,0,0,.15.13.13.13,0,0,0,.13-.15L191.52,139a.15.15,0,0,0-.15-.14A.16.16,0,0,0,191.23,139Z"/><path class="cls-69" d="M30.87,53.79l31.48-7a.34.34,0,0,0,.25-.39.33.33,0,0,0-.39-.25l-31.48,7a.33.33,0,0,0-.23.4A.32.32,0,0,0,30.87,53.79Z"/><path class="cls-62" d="M28.55,81.25l13.82,18.8a.27.27,0,0,0,.38.06.28.28,0,0,0,.06-.39L29.09,80.85a.33.33,0,0,0-.47-.07A.34.34,0,0,0,28.55,81.25Z"/><path class="cls-70" d="M94.27,39.48l11.48,20.29a.26.26,0,0,0,.36.08.27.27,0,0,0,.09-.34L94.84,39.15a.33.33,0,1,0-.57.33Z"/><path class="cls-56" d="M73.91,93.83,106,87.34a.28.28,0,0,0,.22-.33.29.29,0,0,0-.33-.22l-32,6.49a.28.28,0,0,0,.11.55Z"/><path class="cls-57" d="M138.09,53.07l32.86-7a.28.28,0,0,0,.2-.32.26.26,0,0,0-.31-.21l-32.86,7a.27.27,0,1,0,.11.52Z"/><path class="cls-11" d="M52.8,174.77l31.82-5.47a.28.28,0,0,0,.22-.31.28.28,0,0,0-.31-.22l-31.82,5.48a.28.28,0,0,0-.21.31A.27.27,0,0,0,52.8,174.77Z"/><path class="cls-64" d="M117.05,134l32.63-6a.26.26,0,0,0,.2-.32.27.27,0,0,0-.3-.21l-32.63,6a.27.27,0,0,0-.21.32A.26.26,0,0,0,117.05,134Z"/><path class="cls-71" d="M51.15,205.4l13.06,14.36a.14.14,0,0,0,.2,0,.15.15,0,0,0,0-.19L51.5,205.08a.23.23,0,0,0-.33,0A.24.24,0,0,0,51.15,205.4Z"/><path class="cls-72" d="M182.86,121.71l8.39,17.37a.15.15,0,0,0,.19.07.16.16,0,0,0,.07-.2l-8.16-17.48a.29.29,0,0,0-.37-.13A.28.28,0,0,0,182.86,121.71Z"/><path class="cls-57" d="M95.94,215l32.41-5a.13.13,0,0,0,.11-.16.14.14,0,0,0-.16-.12h0l-32.4,5a.14.14,0,0,0-.1.17A.13.13,0,0,0,95.94,215Z"/><path class="cls-43" d="M160.27,174.13l33.21-5.49a.14.14,0,0,0,.11-.17.15.15,0,0,0-.15-.11l-33.22,5.49a.14.14,0,0,0-.12.16A.15.15,0,0,0,160.27,174.13Z"/><path class="cls-73" d="M30.48,53.45,28.48,81a.34.34,0,0,0,.33.35.33.33,0,0,0,.35-.3l2-27.58a.32.32,0,0,0-.31-.34A.32.32,0,0,0,30.48,53.45Z"/><path class="cls-74" d="M73.58,93.55l-1,28.63a.34.34,0,0,0,.34.34.34.34,0,0,0,.34-.32l.83-28.64a.28.28,0,0,0-.27-.28.27.27,0,0,0-.28.27Z"/><path class="cls-75" d="M137.77,52.82l.72,27.59a.3.3,0,0,0,.3.28.29.29,0,0,0,.27-.29l-.77-27.6a.26.26,0,0,0-.28-.24A.25.25,0,0,0,137.77,52.82Z"/><path class="cls-76" d="M52.49,174.5l-1.4,30.73a.23.23,0,0,0,.24.23.23.23,0,0,0,.23-.21L53,174.52a.26.26,0,0,0-.25-.27A.27.27,0,0,0,52.49,174.5Z"/><path class="cls-77" d="M116.73,133.73l.21,29.69a.26.26,0,0,0,.27.26.27.27,0,0,0,.27-.26l-.22-29.69a.27.27,0,1,0-.53,0Z"/><path class="cls-68" d="M181,93l1.8,28.66a.27.27,0,1,0,.54,0h0l-1.89-28.65a.24.24,0,0,0-.24-.21A.22.22,0,0,0,181,93Z"/><path class="cls-78" d="M160.1,174l1.32,30.75a.13.13,0,0,0,.14.13.14.14,0,0,0,.14-.14L160.38,174a.15.15,0,0,0-.16-.12A.16.16,0,0,0,160.1,174Z"/><path class="cls-4" d="M16.05,32.94,30.54,53.66a.32.32,0,0,0,.45.05.33.33,0,0,0,.08-.42L16.81,32.41a.45.45,0,0,0-.64-.11.46.46,0,0,0-.12.64Z"/><path class="cls-79" d="M62.35,46.8l32.28-7.16a.33.33,0,0,0,.24-.4.34.34,0,0,0-.39-.25L62.21,46.16a.33.33,0,0,0-.25.39A.32.32,0,0,0,62.35,46.8Z"/><path class="cls-80" d="M127.37,32.11,137.8,52.93a.25.25,0,0,0,.35.1.27.27,0,0,0,.12-.34L128,31.81a.35.35,0,0,0-.45-.15.33.33,0,0,0-.15.45Z"/><path class="cls-81" d="M41,128.65l32-6.13a.34.34,0,0,0,.27-.4.35.35,0,0,0-.4-.27l-32,6.13a.35.35,0,0,0-.27.4A.35.35,0,0,0,41,128.65Z"/><path class="cls-64" d="M106,87.34l32.87-6.66a.28.28,0,0,0-.11-.55l-32.87,6.66a.28.28,0,0,0-.22.33A.29.29,0,0,0,106,87.34Z"/><path class="cls-82" d="M38.86,158.48l13.69,16.2a.27.27,0,0,0,.37,0,.26.26,0,0,0,0-.37h0L39.49,158a.41.41,0,0,0-.58,0A.42.42,0,0,0,38.86,158.48Z"/><path class="cls-72" d="M172.24,73.7,181.05,93a.23.23,0,0,0,.3.1.24.24,0,0,0,.11-.28l-8.7-19.39a.29.29,0,0,0-.38-.15A.3.3,0,0,0,172.24,73.7Z"/><path class="cls-83" d="M84.62,169.3l32.64-5.62a.27.27,0,0,0,.2-.32.28.28,0,0,0-.3-.21l-32.63,5.62a.27.27,0,1,0,.09.53Z"/><path class="cls-43" d="M149.68,128l33.47-6.14a.27.27,0,0,0-.1-.54l-33.47,6.15a.27.27,0,0,0-.2.32A.27.27,0,0,0,149.68,128Z"/><path class="cls-84" d="M83.77,200.17l12,14.74a.15.15,0,0,0,.2,0,.14.14,0,0,0,0-.2L84.14,199.87a.24.24,0,1,0-.37.3Z"/><path class="cls-25" d="M128.35,210l33.23-5.1a.14.14,0,0,0,0-.28l-33.24,5.1a.15.15,0,0,0-.11.16A.14.14,0,0,0,128.35,210Z"/><path class="cls-85" d="M62,46.47,60.74,74.22a.35.35,0,0,0,.34.35.34.34,0,0,0,.34-.32L62.6,46.5a.33.33,0,0,0-.31-.35A.34.34,0,0,0,62,46.47Z"/><path class="cls-86" d="M40.59,128.3l-1.82,29.89a.41.41,0,0,0,.4.42.41.41,0,0,0,.41-.37l1.68-29.9a.34.34,0,0,0-.33-.35A.34.34,0,0,0,40.59,128.3Z"/><path class="cls-87" d="M105.63,87.06l-.14,28.84a.35.35,0,0,0,.69,0V87.06a.28.28,0,0,0-.28-.27A.27.27,0,0,0,105.63,87.06Z"/><path class="cls-68" d="M170.63,45.82l1.58,27.77a.29.29,0,0,0,.58,0l-1.63-27.77a.27.27,0,0,0-.29-.24A.27.27,0,0,0,170.63,45.82Z"/><path class="cls-88" d="M84.31,169l-.6,31a.24.24,0,0,0,.48,0l.65-31a.27.27,0,0,0-.27-.27A.27.27,0,0,0,84.31,169Z"/><path class="cls-89" d="M149.36,127.75l1.06,29.91a.27.27,0,1,0,.54,0l-1.06-29.91a.28.28,0,0,0-.28-.27A.28.28,0,0,0,149.36,127.75Z"/><path class="cls-29" d="M193.32,168.51l2.19,31a.14.14,0,0,0,.16.12.14.14,0,0,0,.12-.14l-2.19-31a.13.13,0,0,0-.15-.13A.14.14,0,0,0,193.32,168.51Z"/><path class="cls-7" d="M48.52,25.4,62,46.66a.33.33,0,0,0,.55-.35L49.31,24.9a.47.47,0,0,0-.65-.13A.47.47,0,0,0,48.52,25.4Z"/><path class="cls-81" d="M28.89,81.39l32.26-6.81A.35.35,0,0,0,61,73.9h0L28.75,80.72a.34.34,0,0,0-.26.4.35.35,0,0,0,.4.27Z"/><path class="cls-90" d="M94.63,39.64l33.11-7.35a.32.32,0,0,0,.24-.4.34.34,0,0,0-.39-.26L94.48,39a.33.33,0,0,0-.24.4A.32.32,0,0,0,94.63,39.64Z"/><path class="cls-91" d="M26.45,110.29l14.21,18.23a.33.33,0,0,0,.47.06.34.34,0,0,0,.06-.47L27,109.85a.37.37,0,0,0-.51,0A.37.37,0,0,0,26.45,110.29Z"/><path class="cls-72" d="M161.33,24.56l9.32,21.35A.27.27,0,0,0,171,46a.26.26,0,0,0,.13-.33L162,24.28a.34.34,0,0,0-.45-.16A.36.36,0,0,0,161.33,24.56Z"/><path class="cls-92" d="M73,122.52l32.87-6.28a.35.35,0,0,0,.27-.41.34.34,0,0,0-.4-.27h0L72.9,121.85a.34.34,0,0,0-.27.4.33.33,0,0,0,.4.27Z"/><path class="cls-43" d="M138.83,80.68l33.73-6.82a.29.29,0,0,0-.12-.57l-33.72,6.84a.28.28,0,0,0-.21.34A.27.27,0,0,0,138.83,80.68Z"/><path class="cls-93" d="M71.7,152.57l12.66,16.62a.27.27,0,0,0,.37.06.28.28,0,0,0,.06-.38l-12.43-16.8a.42.42,0,0,0-.58-.07A.43.43,0,0,0,71.7,152.57Z"/><path class="cls-94" d="M51.36,205.47,84,200.25a.24.24,0,0,0,.2-.27.25.25,0,0,0-.28-.2L51.29,205a.24.24,0,1,0,.07.47Z"/><path class="cls-16" d="M117.26,163.68l33.48-5.76a.27.27,0,1,0-.1-.53l-33.48,5.76a.27.27,0,0,0-.2.32A.27.27,0,0,0,117.26,163.68Z"/><path class="cls-95" d="M117.24,194.8l11,15.13a.14.14,0,0,0,.23-.17l-10.81-15.24a.24.24,0,0,0-.34-.05A.24.24,0,0,0,117.24,194.8Z"/><path class="cls-96" d="M184.8,151.87l8.54,16.69a.14.14,0,0,0,.18.07.15.15,0,0,0,.07-.19h0l-8.3-16.82a.27.27,0,0,0-.37-.12A.29.29,0,0,0,184.8,151.87Z"/><path class="cls-46" d="M161.58,204.88l34.09-5.23a.14.14,0,0,0,0-.28l-34.09,5.23a.15.15,0,0,0-.11.17A.14.14,0,0,0,161.58,204.88Z"/><path class="cls-86" d="M28.48,81l-2.1,29a.36.36,0,1,0,.71.06l2.07-29a.35.35,0,0,0-.33-.36A.34.34,0,0,0,28.48,81Z"/><path class="cls-97" d="M94.22,39.31l-.38,27.93a.35.35,0,0,0,.35.35.34.34,0,0,0,.34-.34l.36-27.93a.33.33,0,0,0-.34-.32A.33.33,0,0,0,94.22,39.31Z"/><path class="cls-98" d="M72.62,122.18l-1,30.12a.41.41,0,1,0,.82,0l.86-30.13a.34.34,0,0,0-.33-.35A.34.34,0,0,0,72.62,122.18Z"/><path class="cls-99" d="M138.49,80.41l.72,29a.35.35,0,0,0,.7,0l-.85-29a.29.29,0,0,0-.57,0Z"/><path class="cls-100" d="M116.94,163.42l.25,31.24a.24.24,0,1,0,.48,0h0l-.19-31.24a.28.28,0,0,0-.28-.27A.27.27,0,0,0,116.94,163.42Z"/><path class="cls-101" d="M182.83,121.61l1.94,30.15a.29.29,0,0,0,.31.25.28.28,0,0,0,.24-.29l-1.95-30.15a.27.27,0,0,0-.54,0Z"/><path class="cls-63" d="M16.54,33.13,49,25.61a.47.47,0,0,0,.34-.57.47.47,0,0,0-.55-.35L16.33,32.22a.48.48,0,0,0-.35.56A.47.47,0,0,0,16.54,33.13Z"/><path class="cls-102" d="M13.63,61,28.55,81.25a.33.33,0,0,0,.47.08.34.34,0,0,0,.07-.48L14.35,60.5a.44.44,0,0,0-.62-.09A.45.45,0,0,0,13.63,61Z"/><path class="cls-14" d="M81.84,17.66,94.27,39.48a.33.33,0,0,0,.45.13.34.34,0,0,0,.12-.46l-12.17-22A.48.48,0,0,0,82,17a.49.49,0,0,0-.18.65Z"/><path class="cls-92" d="M61.15,74.58l33.11-7a.36.36,0,0,0,.27-.41.36.36,0,0,0-.42-.28L61,73.9a.34.34,0,0,0-.27.41A.35.35,0,0,0,61.15,74.58Z"/><path class="cls-103" d="M127.74,32.29l34-7.54a.34.34,0,0,0-.15-.66l-34,7.54a.33.33,0,0,0-.24.41A.32.32,0,0,0,127.74,32.29Z"/><path class="cls-104" d="M59.52,103.67l13.17,18.71a.33.33,0,0,0,.47.08.35.35,0,0,0,.08-.47L60.12,103.25a.37.37,0,1,0-.6.42Z"/><path class="cls-105" d="M39.25,158.62l32.85-5.9a.41.41,0,0,0-.14-.81l-32.86,5.9a.41.41,0,0,0,.15.81Z"/><path class="cls-106" d="M105.9,116.24l33.73-6.45a.35.35,0,0,0-.13-.69l-33.73,6.46a.35.35,0,0,0-.28.4A.36.36,0,0,0,105.9,116.24Z"/><path class="cls-107" d="M37.06,190,51.15,205.4a.24.24,0,0,0,.33,0,.23.23,0,0,0,0-.33h0L37.61,189.44a.38.38,0,0,0-.53,0A.38.38,0,0,0,37.06,190Z"/><path class="cls-108" d="M105.41,146.49,117,163.57a.27.27,0,0,0,.44-.3L106.1,146a.42.42,0,0,0-.58-.1A.42.42,0,0,0,105.41,146.49Z"/><path class="cls-109" d="M173.87,103l9,18.74a.27.27,0,0,0,.36.13.29.29,0,0,0,.13-.37l-8.84-18.8a.36.36,0,0,0-.48-.16A.35.35,0,0,0,173.87,103Z"/><path class="cls-110" d="M84,200.25l33.48-5.35a.25.25,0,0,0,.2-.28.24.24,0,0,0-.28-.2l-33.48,5.36a.24.24,0,1,0,.08.47Z"/><path class="cls-5" d="M150.74,157.92,185.09,152a.27.27,0,0,0,.23-.32.27.27,0,0,0-.32-.22l-34.36,5.92a.27.27,0,1,0,.1.53Z"/><path class="cls-111" d="M151.59,189.29l9.85,15.53a.14.14,0,0,0,.19,0,.14.14,0,0,0,.05-.19L152,189a.25.25,0,0,0-.42.26Z"/><path class="cls-112" d="M16,32.64,13.55,60.73a.45.45,0,1,0,.89.08l2.45-28.09a.46.46,0,0,0-.43-.5A.48.48,0,0,0,16,32.64Z"/><path class="cls-113" d="M60.74,74.22l-1.28,29.23a.36.36,0,0,0,.36.36.35.35,0,0,0,.36-.33l1.24-29.23a.34.34,0,0,0-.34-.34A.32.32,0,0,0,60.74,74.22Z"/><path class="cls-114" d="M127.33,32l.48,28.11a.37.37,0,0,0,.38.33.36.36,0,0,0,.33-.34L128,32a.32.32,0,0,0-.34-.33A.33.33,0,0,0,127.33,32Z"/><path class="cls-115" d="M38.77,158.19,37,189.67a.37.37,0,0,0,.37.38.35.35,0,0,0,.37-.33l1.88-31.48a.4.4,0,0,0-.4-.42A.4.4,0,0,0,38.77,158.19Z"/><path class="cls-95" d="M105.49,115.9l-.15,30.36a.42.42,0,1,0,.83,0h0V115.9a.35.35,0,0,0-.69,0Z"/><path class="cls-116" d="M172.21,73.59l1.63,29.25a.34.34,0,0,0,.39.31.35.35,0,0,0,.31-.35l-1.75-29.24a.29.29,0,0,0-.31-.27.28.28,0,0,0-.27.3Z"/><path class="cls-117" d="M150.42,157.66l1.14,31.51a.24.24,0,0,0,.26.23.25.25,0,0,0,.23-.25L151,157.64a.27.27,0,0,0-.54,0Z"/><path class="cls-57" d="M49,25.61l33.34-7.72a.48.48,0,1,0-.21-.93L48.81,24.69a.47.47,0,0,0-.34.57A.47.47,0,0,0,49,25.61Z"/><path class="cls-118" d="M46.94,53.67,60.79,74.43a.34.34,0,0,0,.48.08.35.35,0,0,0,.1-.46L47.69,53.16a.45.45,0,0,0-.75.51Z"/><path class="cls-23" d="M116.06,9.71l11.31,22.4a.34.34,0,0,0,.45.16.36.36,0,0,0,.15-.46l-11-22.53a.47.47,0,0,0-.65-.19A.49.49,0,0,0,116.06,9.71Z"/><path class="cls-105" d="M26.8,110.42l33.09-6.6a.36.36,0,0,0,.28-.43.35.35,0,0,0-.42-.28l-33.08,6.61a.37.37,0,0,0-.29.42.35.35,0,0,0,.42.28Z"/><path class="cls-106" d="M94.26,67.59l34-7.17a.35.35,0,0,0,.26-.43.35.35,0,0,0-.4-.27l-34,7.18a.35.35,0,1,0,.15.69Z"/><path class="cls-119" d="M24.19,140.93l14.67,17.55a.41.41,0,0,0,.63-.53L24.88,140.36a.44.44,0,0,0-.63,0A.45.45,0,0,0,24.19,140.93Z"/><path class="cls-120" d="M93.48,96.87l12.06,19.21a.34.34,0,0,0,.58-.37l-12-19.23a.37.37,0,0,0-.63.39Z"/><path class="cls-121" d="M162.74,52.85l9.5,20.85a.28.28,0,0,0,.38.14.29.29,0,0,0,.14-.38l-9.37-20.91a.36.36,0,0,0-.48-.15A.35.35,0,0,0,162.74,52.85Z"/><path class="cls-122" d="M72.1,152.72l33.73-6.05a.42.42,0,0,0-.15-.82L72,151.91a.41.41,0,0,0-.34.48.42.42,0,0,0,.48.33Z"/><path class="cls-12" d="M139.63,109.79l34.62-6.62a.36.36,0,1,0-.13-.7L139.5,109.1a.35.35,0,0,0,.13.69Z"/><path class="cls-123" d="M70.75,184.3l13,15.87a.23.23,0,0,0,.33,0,.24.24,0,0,0,0-.33l-12.8-16.05a.38.38,0,0,0-.53,0A.39.39,0,0,0,70.75,184.3Z"/><path class="cls-124" d="M140,140.26l10.43,17.53a.26.26,0,0,0,.37.08.26.26,0,0,0,.09-.35l-10.17-17.69a.42.42,0,0,0-.58-.14A.43.43,0,0,0,140,140.26Z"/><path class="cls-125" d="M117.47,194.9l34.37-5.5a.24.24,0,1,0-.08-.48l-34.37,5.5a.24.24,0,0,0,.08.48Z"/><path class="cls-126" d="M186.88,183.63l8.65,16a.14.14,0,0,0,.19,0,.13.13,0,0,0,.05-.19l-8.45-16.05a.26.26,0,0,0-.34-.08A.25.25,0,0,0,186.88,183.63Z"/><path class="cls-127" d="M48.45,25.12,46.86,53.39a.46.46,0,0,0,.43.48.44.44,0,0,0,.47-.43h0l1.62-28.26a.47.47,0,0,0-.45-.49A.46.46,0,0,0,48.45,25.12Z"/><path class="cls-115" d="M26.38,110l-2.29,30.57a.46.46,0,0,0,.41.49.45.45,0,0,0,.48-.42l2.11-30.58a.37.37,0,0,0-.33-.39.36.36,0,0,0-.38.33Z"/><path class="cls-95" d="M93.84,67.24l-.41,29.43a.37.37,0,1,0,.73,0l.37-29.43a.34.34,0,0,0-.35-.34A.34.34,0,0,0,93.84,67.24Z"/><path class="cls-116" d="M161.3,24.44l1.41,28.28a.35.35,0,0,0,.37.34.36.36,0,0,0,.34-.38h0L162,24.4a.32.32,0,0,0-.36-.31A.34.34,0,0,0,161.3,24.44Z"/><path class="cls-128" d="M71.62,152.3l-1,31.75a.38.38,0,0,0,.37.38.38.38,0,0,0,.38-.36l1-31.74a.41.41,0,0,0-.4-.43A.4.4,0,0,0,71.62,152.3Z"/><path class="cls-129" d="M139.21,109.45l.76,30.6a.42.42,0,0,0,.43.42.42.42,0,0,0,.41-.44h0l-.9-30.59a.35.35,0,0,0-.38-.32A.35.35,0,0,0,139.21,109.45Z"/><path class="cls-130" d="M184.77,151.76l2.08,31.77a.25.25,0,0,0,.5,0l-2-31.78a.26.26,0,0,0-.3-.24A.28.28,0,0,0,184.77,151.76Z"/><path class="cls-131" d="M14.09,61.21l33.32-7.35a.46.46,0,0,0-.19-.89L13.9,60.33a.44.44,0,0,0-.34.53.45.45,0,0,0,.53.35Z"/><path class="cls-25" d="M82.36,17.89,116.6,10a.48.48,0,0,0,.36-.58.5.5,0,0,0-.57-.36L82.15,17a.47.47,0,0,0-.35.57A.46.46,0,0,0,82.36,17.89Z"/><path class="cls-132" d="M11.08,90.66l15.37,19.63a.36.36,0,0,0,.57-.44L11.77,90.11a.44.44,0,0,0-.62-.08.45.45,0,0,0-.07.63Z"/><path class="cls-133" d="M81.14,46.1,93.89,67.43a.34.34,0,0,0,.47.12.35.35,0,0,0,.12-.48L81.93,45.63a.45.45,0,0,0-.63-.15A.47.47,0,0,0,81.14,46.1Z"/><path class="cls-34" d="M151.22,1.54l10.11,23a.35.35,0,0,0,.46.16.34.34,0,0,0,.16-.44L152.11,1.15a.48.48,0,0,0-.64-.25A.48.48,0,0,0,151.22,1.54Z"/><path class="cls-122" d="M59.89,103.82l34-6.78a.38.38,0,0,0,.29-.44.37.37,0,0,0-.44-.28l-34,6.79a.36.36,0,0,0,.14.71Z"/><path class="cls-12" d="M128.24,60.42l34.9-7.37a.36.36,0,0,0-.15-.7L128.1,59.72a.37.37,0,0,0-.27.43A.35.35,0,0,0,128.24,60.42Z"/><path class="cls-134" d="M58.13,134.55l13.57,18a.41.41,0,0,0,.66-.5L58.85,134a.45.45,0,0,0-.64-.06A.46.46,0,0,0,58.13,134.55Z"/><path class="cls-135" d="M128.37,89.89l10.89,19.72a.34.34,0,0,0,.48.12.36.36,0,0,0,.13-.46L129,89.53a.37.37,0,0,0-.51-.14A.38.38,0,0,0,128.37,89.89Z"/><path class="cls-8" d="M37.39,190.06l33.72-5.62a.39.39,0,0,0,.3-.45.38.38,0,0,0-.43-.3l-33.71,5.64a.37.37,0,0,0,.12.73Z"/><path class="cls-136" d="M105.83,146.67l34.63-6.21a.43.43,0,1,0-.14-.84l-34.64,6.23a.42.42,0,0,0-.31.5A.41.41,0,0,0,105.83,146.67Z"/><path class="cls-137" d="M105.37,178.5l11.87,16.3a.23.23,0,0,0,.33,0,.24.24,0,0,0,.06-.33L106,178.05a.38.38,0,0,0-.54-.06A.38.38,0,0,0,105.37,178.5Z"/><path class="cls-138" d="M175.59,133.85l9.21,18a.28.28,0,0,0,.37.11.27.27,0,0,0,.12-.36l-8.94-18.16a.43.43,0,0,0-.58-.17A.43.43,0,0,0,175.59,133.85Z"/><path class="cls-139" d="M151.84,189.4l35.3-5.64a.25.25,0,0,0-.08-.49l-35.3,5.65a.25.25,0,0,0-.2.28A.25.25,0,0,0,151.84,189.4Z"/><path class="cls-140" d="M13.55,60.73,11,90.34a.45.45,0,0,0,.41.48.44.44,0,0,0,.47-.4l2.58-29.61a.45.45,0,1,0-.89-.08Z"/><path class="cls-24" d="M81.78,17.41l-.7,28.45a.45.45,0,0,0,.46.45.47.47,0,0,0,.46-.43l.73-28.44a.47.47,0,0,0-.46-.49A.48.48,0,0,0,81.78,17.41Z"/><path class="cls-128" d="M59.46,103.45,58,134.25a.45.45,0,0,0,.43.48.47.47,0,0,0,.48-.44l1.23-30.81a.37.37,0,0,0-.36-.37A.36.36,0,0,0,59.46,103.45Z"/><path class="cls-129" d="M127.81,60.08l.51,29.63a.38.38,0,0,0,.38.37.37.37,0,0,0,.37-.38l-.55-29.63a.34.34,0,0,0-.38-.33A.36.36,0,0,0,127.81,60.08Z"/><path class="cls-141" d="M105.34,146.26l0,32a.39.39,0,0,0,.77,0l.11-32a.41.41,0,0,0-.41-.42.42.42,0,0,0-.42.42Z"/><path class="cls-142" d="M173.84,102.84l1.7,30.84a.43.43,0,0,0,.45.41.44.44,0,0,0,.41-.46l-1.86-30.83a.35.35,0,0,0-.7,0Z"/><path class="cls-106" d="M47.41,53.86l34.23-7.54a.46.46,0,0,0,.34-.55.45.45,0,0,0-.54-.35L47.22,53a.46.46,0,1,0,.19.89Z"/><path class="cls-46" d="M116.6,10l35.17-8.14a.49.49,0,1,0-.22-.95L116.39,9a.49.49,0,0,0-.36.58A.48.48,0,0,0,116.6,10Z"/><path class="cls-143" d="M45.26,83.5l14.26,20.17a.36.36,0,0,0,.51.09.38.38,0,0,0,.09-.51L46,83a.45.45,0,0,0-.62-.11A.44.44,0,0,0,45.26,83.5Z"/><path class="cls-144" d="M116.3,38.33l11.56,21.91a.35.35,0,0,0,.48.12.36.36,0,0,0,.14-.45l-11.36-22a.47.47,0,0,0-.82.44Z"/><path class="cls-8" d="M24.62,141.09l34-6.37a.46.46,0,0,0-.16-.9l-34,6.38a.45.45,0,0,0,.17.89Z"/><path class="cls-136" d="M93.87,97l34.9-7a.37.37,0,0,0,.29-.44.38.38,0,0,0-.44-.29h0l-34.9,7a.35.35,0,0,0-.28.43A.36.36,0,0,0,93.87,97Z"/><path class="cls-145" d="M21.85,173.24,37.06,190a.37.37,0,0,0,.52,0,.38.38,0,0,0,0-.52l-15-16.87a.49.49,0,0,0-.71,0A.5.5,0,0,0,21.85,173.24Z"/><path class="cls-146" d="M164.22,82.71,173.87,103a.35.35,0,0,0,.48.16.37.37,0,0,0,.16-.46L164.9,82.38a.37.37,0,0,0-.5-.18A.38.38,0,0,0,164.22,82.71Z"/><path class="cls-79" d="M71.11,184.44l34.63-5.79a.38.38,0,0,0,.3-.45.39.39,0,0,0-.43-.3L71,183.69a.38.38,0,0,0-.3.44A.4.4,0,0,0,71.11,184.44Z"/><path class="cls-147" d="M140.46,140.46,176,134.08a.43.43,0,0,0,.33-.52.44.44,0,0,0-.48-.33l-35.57,6.39a.44.44,0,0,0-.35.5A.42.42,0,0,0,140.46,140.46Z"/><path class="cls-148" d="M140.94,172.53l10.65,16.76a.25.25,0,0,0,.35.06A.25.25,0,0,0,152,189l-10.42-16.91a.39.39,0,0,0-.54-.1A.39.39,0,0,0,140.94,172.53Z"/><path class="cls-149" d="M46.86,53.39,45.18,83.21a.45.45,0,0,0,.43.47.46.46,0,0,0,.46-.42l1.69-29.82a.45.45,0,0,0-.42-.48A.46.46,0,0,0,46.86,53.39Z"/><path class="cls-150" d="M116,9.5l.23,28.61a.47.47,0,0,0,.47.47.48.48,0,0,0,.46-.48L117,9.49a.48.48,0,1,0-1,0Z"/><path class="cls-151" d="M24.09,140.61l-2.37,32.26a.5.5,0,0,0,.47.53.51.51,0,0,0,.53-.46L25,140.68a.44.44,0,0,0-.41-.48.44.44,0,0,0-.48.41Z"/><path class="cls-141" d="M93.43,96.67l-.51,31.05a.46.46,0,1,0,.92,0h0l.32-31a.37.37,0,1,0-.73,0Z"/><path class="cls-142" d="M162.71,52.72l1.47,29.84a.38.38,0,0,0,.76,0l-1.52-29.84a.37.37,0,0,0-.38-.34A.36.36,0,0,0,162.71,52.72Z"/><path class="cls-152" d="M140,140.05l.91,32.29a.39.39,0,0,0,.4.37.4.4,0,0,0,.37-.39L140.81,140a.42.42,0,0,0-.84,0Z"/><path class="cls-81" d="M11.51,90.82l34.2-7.14a.45.45,0,0,0-.18-.88L11.33,90a.44.44,0,0,0-.34.52A.44.44,0,0,0,11.51,90.82Z"/><path class="cls-9" d="M81.64,46.32l35.17-7.75a.47.47,0,0,0-.2-.92h0L81.44,45.42a.46.46,0,0,0-.35.55A.47.47,0,0,0,81.64,46.32Z"/><path class="cls-153" d="M8.26,122l15.93,18.9a.45.45,0,0,0,.69-.57L9.16,121.27a.59.59,0,0,0-.9.76Z"/><path class="cls-154" d="M80.4,76.14,93.48,96.87A.36.36,0,0,0,94,97a.38.38,0,0,0,.12-.51h0l-13-20.83a.45.45,0,0,0-.63-.13A.46.46,0,0,0,80.4,76.14Z"/><path class="cls-155" d="M152.43,30.33l10.31,22.52a.35.35,0,0,0,.48.16.37.37,0,0,0,.17-.46l-10.1-22.61a.47.47,0,0,0-.62-.24.48.48,0,0,0-.24.63Z"/><path class="cls-79" d="M58.57,134.72l34.9-6.54a.47.47,0,0,0,.37-.54.47.47,0,0,0-.54-.37l-34.89,6.55a.47.47,0,0,0-.36.54A.45.45,0,0,0,58.57,134.72Z"/><path class="cls-147" d="M128.77,90.07l35.86-7.15a.38.38,0,0,0,.3-.45.37.37,0,0,0-.44-.3h0l-35.87,7.17a.37.37,0,1,0,.15.73Z"/><path class="cls-156" d="M56.69,167.13,70.75,184.3a.38.38,0,0,0,.53,0,.39.39,0,0,0,.06-.52L57.48,166.49a.49.49,0,0,0-.71-.06A.51.51,0,0,0,56.69,167.13Z"/><path class="cls-157" d="M105.74,178.65l35.59-5.94a.38.38,0,0,0,.29-.46.38.38,0,0,0-.42-.31l-35.59,6a.38.38,0,0,0,.13.75Z"/><path class="cls-158" d="M177.5,166.4l9.38,17.23a.25.25,0,0,0,.34.09.27.27,0,0,0,.1-.33L178.2,166a.4.4,0,0,0-.7.37Z"/><path class="cls-86" d="M11,90.34,8.13,121.6a.58.58,0,1,0,1.16.1h0l2.57-31.28a.43.43,0,0,0-.41-.47A.45.45,0,0,0,11,90.34Z"/><path class="cls-159" d="M81.08,45.86l-.75,30a.45.45,0,0,0,.44.47.44.44,0,0,0,.46-.44l.77-30a.47.47,0,0,0-.47-.46A.45.45,0,0,0,81.08,45.86Z"/><path class="cls-160" d="M151.18,1.36l1.21,28.79a.47.47,0,1,0,.94,0L152.15,1.32a.49.49,0,0,0-1,0Z"/><path class="cls-161" d="M58,134.25l-1.46,32.54a.51.51,0,0,0,.49.53.52.52,0,0,0,.53-.49L59,134.29a.46.46,0,0,0-.44-.47.45.45,0,0,0-.47.43Z"/><path class="cls-152" d="M128.32,89.71l.47,31.3a.46.46,0,0,0,.47.46.47.47,0,0,0,.46-.48l-.65-31.29a.38.38,0,1,0-.75,0Z"/><path class="cls-162" d="M175.54,133.68l1.92,32.56a.39.39,0,0,0,.42.36.4.4,0,0,0,.36-.41l-1.84-32.56a.43.43,0,1,0-.86.05Z"/><path class="cls-92" d="M45.71,83.68l35.16-7.34a.45.45,0,0,0-.18-.89L45.53,82.8a.45.45,0,0,0,.18.88Z"/><path class="cls-163" d="M116.81,38.57l36.15-8a.48.48,0,0,0-.2-.93h0l-36.15,8a.47.47,0,1,0,.2.92Z"/><path class="cls-164" d="M43.37,115.11l14.76,19.44a.46.46,0,0,0,.64.06.45.45,0,0,0,.08-.61L44.31,114.39a.59.59,0,0,0-.83-.12.6.6,0,0,0-.11.84Z"/><path class="cls-165" d="M116.53,68.57l11.84,21.32a.37.37,0,0,0,.65-.36L117.34,68.12a.46.46,0,0,0-.63-.18.47.47,0,0,0-.18.63Z"/><path class="cls-12" d="M22.3,173.4l34.87-6.09a.51.51,0,0,0,.4-.6.52.52,0,0,0-.57-.41l-34.87,6.11a.5.5,0,0,0,.17,1Z"/><path class="cls-157" d="M93.47,128.18l35.87-6.72a.47.47,0,0,0,.36-.56.45.45,0,0,0-.53-.36L93.3,127.27a.46.46,0,0,0,.17.91Z"/><path class="cls-166" d="M92.53,160.84l12.84,17.66a.37.37,0,0,0,.53.06.39.39,0,0,0,.09-.51L93.37,160.23a.52.52,0,0,0-.84.61Z"/><path class="cls-167" d="M165.72,114.29l9.87,19.56a.43.43,0,0,0,.58.17.44.44,0,0,0,.18-.56l-9.78-19.6a.48.48,0,0,0-.85.43Z"/><path class="cls-168" d="M141.33,172.71l36.58-6.11a.39.39,0,0,0,.33-.45.4.4,0,0,0-.45-.33h0l-36.59,6.12a.39.39,0,0,0-.29.47A.39.39,0,0,0,141.33,172.71Z"/><path class="cls-98" d="M45.18,83.21l-1.93,31.5a.59.59,0,1,0,1.18.07l1.64-31.52a.45.45,0,0,0-.43-.46A.44.44,0,0,0,45.18,83.21Z"/><path class="cls-169" d="M116.24,38.11l.23,30.24a.47.47,0,0,0,.47.46.46.46,0,0,0,.45-.47l-.22-30.24a.47.47,0,1,0-.93,0Z"/><path class="cls-170" d="M92.92,127.72l-.49,32.81A.53.53,0,0,0,93,161a.51.51,0,0,0,.5-.5l.38-32.81a.47.47,0,0,0-.45-.47.48.48,0,0,0-.47.46Z"/><path class="cls-162" d="M164.18,82.56l1.49,31.54a.47.47,0,0,0,.5.45.48.48,0,0,0,.45-.5l-1.68-31.53a.38.38,0,0,0-.76,0Z"/><path class="cls-105" d="M8.82,122.23,44,115.33a.6.6,0,1,0-.23-1.17L8.6,121.07a.59.59,0,0,0,.22,1.16Z"/><path class="cls-106" d="M80.87,76.34,117,68.8a.48.48,0,0,0,.35-.56.47.47,0,0,0-.54-.35L80.69,75.45a.45.45,0,0,0,.18.89Z"/><path class="cls-171" d="M5.34,155.16l16.51,18.08a.5.5,0,0,0,.71,0,.5.5,0,0,0,0-.69L6.34,154.26a.68.68,0,0,0-1,0A.69.69,0,0,0,5.34,155.16Z"/><path class="cls-172" d="M79.48,108,93,128a.46.46,0,0,0,.77-.52L80.48,107.31a.61.61,0,0,0-.84-.15A.59.59,0,0,0,79.48,108Z"/><path class="cls-173" d="M153.71,60.78l10.51,21.93a.37.37,0,0,0,.5.18.38.38,0,0,0,.18-.51l-10.35-22a.47.47,0,0,0-.63-.2A.47.47,0,0,0,153.71,60.78Z"/><path class="cls-21" d="M57.17,167.31,93,161.05a.52.52,0,0,0,.39-.62.5.5,0,0,0-.57-.4L57,166.3a.51.51,0,0,0-.39.61A.5.5,0,0,0,57.17,167.31Z"/><path class="cls-168" d="M129.34,121.46l36.89-6.92a.46.46,0,0,0,.36-.56.47.47,0,0,0-.54-.37l-36.88,6.93a.47.47,0,0,0,.17.92Z"/><path class="cls-174" d="M129.4,154.37l11.54,18.16a.38.38,0,0,0,.54.1.39.39,0,0,0,.11-.51l-11.3-18.31a.52.52,0,0,0-.72-.17A.53.53,0,0,0,129.4,154.37Z"/><path class="cls-175" d="M8.13,121.6l-3,33.05a.67.67,0,0,0,1.34.12L9.29,121.7a.58.58,0,1,0-1.16-.1Z"/><path class="cls-95" d="M80.33,75.88l-1,31.75a.6.6,0,0,0,1.2,0l.65-31.75a.45.45,0,0,0-.44-.47A.44.44,0,0,0,80.33,75.88Z"/><path class="cls-116" d="M152.39,30.15l1.27,30.44a.47.47,0,0,0,.5.44.46.46,0,0,0,.43-.48l-1.26-30.44a.47.47,0,0,0-.94,0Z"/><path class="cls-176" d="M128.79,121l.53,33.09a.52.52,0,0,0,.53.51.52.52,0,0,0,.52-.53h0L129.72,121a.47.47,0,1,0-.93,0Z"/><path class="cls-122" d="M44,115.33l36.14-7.09a.61.61,0,0,0-.23-1.19l-36.14,7.11a.59.59,0,0,0-.46.7A.58.58,0,0,0,44,115.33Z"/><path class="cls-12" d="M117,68.8,154.22,61a.47.47,0,0,0-.19-.92l-37.19,7.78a.46.46,0,0,0-.35.55A.46.46,0,0,0,117,68.8Z"/><path class="cls-177" d="M41.42,148.52l15.27,18.61a.52.52,0,0,0,.72.06.5.5,0,0,0,.07-.7l-15-18.83a.68.68,0,0,0-1.06.86Z"/><path class="cls-178" d="M116.65,100.65l12.2,20.59a.48.48,0,0,0,.65.13.49.49,0,0,0,.16-.61L117.7,100a.61.61,0,0,0-1,.62Z"/><path class="cls-31" d="M93,161.05l36.89-6.45a.52.52,0,0,0-.18-1L92.86,160a.52.52,0,0,0,.18,1Z"/><path class="cls-179" d="M167.35,147.7l10.15,18.7a.4.4,0,0,0,.54.16.39.39,0,0,0,.16-.53l-9.92-18.84a.53.53,0,0,0-.93.51Z"/><path class="cls-115" d="M43.25,114.71l-2,33.34a.68.68,0,0,0,1.36.08l1.8-33.35a.59.59,0,1,0-1.18-.07Z"/><path class="cls-129" d="M116.47,68.35l.09,32a.61.61,0,1,0,1.22,0l-.39-32a.46.46,0,0,0-.46-.46A.47.47,0,0,0,116.47,68.35Z"/><path class="cls-180" d="M165.67,114.1l1.62,33.37a.53.53,0,0,0,.55.51.54.54,0,0,0,.51-.56h0l-1.73-33.37a.49.49,0,0,0-.5-.45.48.48,0,0,0-.45.5Z"/><path class="cls-131" d="M6,155.38l36.11-6.62a.68.68,0,0,0-.24-1.34L5.72,154.05A.68.68,0,0,0,6,155.38Z"/><path class="cls-136" d="M80.09,108.24l37.2-7.3a.62.62,0,0,0,.47-.73.61.61,0,0,0-.7-.47l-37.2,7.31a.62.62,0,0,0-.47.72A.61.61,0,0,0,80.09,108.24Z"/><path class="cls-181" d="M78.57,141.68l14,19.16a.51.51,0,0,0,.72.12.53.53,0,0,0,.12-.73L79.69,140.87a.69.69,0,0,0-1.12.81Z"/><path class="cls-182" d="M154.92,93.09l10.8,21.2a.47.47,0,0,0,.64.21.49.49,0,0,0,.21-.64h0L156,92.53a.62.62,0,0,0-.83-.27A.61.61,0,0,0,154.92,93.09Z"/><path class="cls-42" d="M129.93,154.6l38-6.63a.53.53,0,0,0,.43-.61.54.54,0,0,0-.62-.44l-38,6.65a.52.52,0,0,0-.41.61A.51.51,0,0,0,129.93,154.6Z"/><path class="cls-183" d="M79.38,107.63l-.94,33.63a.69.69,0,0,0,.67.71.7.7,0,0,0,.71-.68h0l.76-33.63a.62.62,0,0,0-.6-.61A.6.6,0,0,0,79.38,107.63Z"/><path class="cls-142" d="M153.66,60.59l1.19,32.25a.62.62,0,0,0,1.24,0l-1.5-32.24a.47.47,0,0,0-.93,0Z"/><path class="cls-21" d="M42.07,148.76,79.25,142a.7.7,0,0,0,.56-.81.69.69,0,0,0-.81-.56l-37.17,6.83a.68.68,0,0,0-.52.81A.67.67,0,0,0,42.07,148.76Z"/><path class="cls-147" d="M117.29,100.94l38.3-7.52a.61.61,0,0,0,.48-.73.63.63,0,0,0-.72-.49l-38.29,7.54a.61.61,0,0,0-.47.72A.6.6,0,0,0,117.29,100.94Z"/><path class="cls-184" d="M116.83,134.63l12.57,19.74a.53.53,0,0,0,.89-.56h0L118,133.88a.69.69,0,0,0-1-.2A.71.71,0,0,0,116.83,134.63Z"/><path class="cls-185" d="M116.56,100.34l.17,33.92a.7.7,0,0,0,1.39,0l-.34-33.92a.61.61,0,0,0-.61-.61A.62.62,0,0,0,116.56,100.34Z"/><path class="cls-105" d="M79.25,142l38.3-7a.7.7,0,0,0-.25-1.38l-38.3,7a.7.7,0,0,0,.25,1.37Z"/><path class="cls-186" d="M156.27,127.35l11.08,20.35a.53.53,0,0,0,.72.2.53.53,0,0,0,.21-.71l-10.76-20.51a.71.71,0,0,0-1.25.67Z"/><path class="cls-187" d="M154.85,92.84l1.33,34.21a.71.71,0,1,0,1.42-.07l-1.51-34.19a.62.62,0,0,0-1.24,0Z"/><path class="cls-188" d="M117.55,134.94,157,127.72a.72.72,0,0,0-.26-1.41l-39.46,7.25a.71.71,0,0,0-.55.83A.7.7,0,0,0,117.55,134.94Z"/><rect class="cls-189" width="200" height="220"/></g></g></svg>